/* XPM */
static char *_3ec98a56bbe41f8fe19965f821676c6[] = {
/* columns rows colors chars-per-pixel */
"77 69 219 2 ",
"   c #312E04",
".  c #353405",
"X  c #3B3607",
"o  c #3B360B",
"O  c #3D3A0C",
"+  c #3D3B11",
"@  c #4C3609",
"#  c #423D0E",
"$  c #523B08",
"%  c #433E12",
"&  c #443D1A",
"*  c #543E12",
"=  c #493F20",
"-  c #54430A",
";  c #5A4409",
":  c #5D4B0B",
">  c #464213",
",  c #4A4415",
"<  c #4B4519",
"1  c #4E4A1B",
"2  c #5A4913",
"3  c #524D1D",
"4  c #57511E",
"5  c #634D0D",
"6  c #64520D",
"7  c #6A530E",
"8  c #72520E",
"9  c #654E14",
"0  c #645314",
"q  c #6A5514",
"w  c #6C5914",
"e  c #63541D",
"r  c #6B561B",
"t  c #755B18",
"y  c #735D1B",
"u  c #6B611D",
"i  c #79631D",
"p  c #4E4321",
"a  c #4C4D20",
"s  c #534E22",
"d  c #534A26",
"f  c #555122",
"g  c #5A5424",
"h  c #5A5627",
"j  c #5B552A",
"k  c #5E5A2A",
"l  c #644F20",
"z  c #6B5723",
"x  c #6A5B22",
"c  c #625C2C",
"v  c #765D25",
"b  c #655D32",
"n  c #685C32",
"m  c #5E632A",
"M  c #6F6027",
"N  c #65612F",
"B  c #776525",
"V  c #666232",
"C  c #656435",
"Z  c #6A6434",
"A  c #6D6935",
"S  c #6C653A",
"D  c #6E6A3A",
"F  c #796A36",
"G  c #716D3C",
"H  c #74713E",
"J  c #7C733B",
"K  c #6E6940",
"L  c #736C44",
"P  c #767241",
"I  c #7A7544",
"U  c #7D7946",
"Y  c #7C764B",
"T  c #7E7A4A",
"R  c #856C25",
"E  c #90772D",
"W  c #887539",
"Q  c #877848",
"!  c #827D4D",
"~  c #927E42",
"^  c #847D52",
"/  c #8A7C55",
"(  c #9E8436",
")  c #A48B38",
"_  c #A9913D",
"`  c #89824C",
"'  c #96844A",
"]  c #868252",
"[  c #898454",
"{  c #8C8A56",
"}  c #8C845B",
"|  c #8E8A5A",
" . c #978757",
".. c #928D5C",
"X. c #97925C",
"o. c #AD9343",
"O. c #B49B48",
"+. c #A49A55",
"@. c #BCA34E",
"#. c #ACA35D",
"$. c #BFA656",
"%. c #8E8662",
"&. c #948D65",
"*. c #969262",
"=. c #9A9664",
"-. c #9D9A66",
";. c #9E9A6A",
":. c #A49565",
">. c #A5966B",
",. c #A29D6C",
"<. c #A5A26E",
"1. c #A8A26C",
"2. c #B6AC69",
"3. c #BBB16C",
"4. c #A6A272",
"5. c #AAA573",
"6. c #ADA976",
"7. c #AAA579",
"8. c #ADAA79",
"9. c #B7A672",
"0. c #B2AB75",
"q. c #B2AD7C",
"w. c #B4B17C",
"e. c #BBB479",
"r. c #C1A54B",
"t. c #C6AC56",
"y. c #CCB35E",
"u. c #D4B85C",
"i. c #C5AC62",
"p. c #CDB364",
"a. c #D8BC66",
"s. c #C5BA79",
"d. c #DCC16A",
"f. c #CCC17E",
"g. c #D2CA7F",
"h. c #E5C66C",
"j. c #E9CB73",
"k. c #F3CC7A",
"l. c #F5D57B",
"z. c #F5D37C",
"x. c #B5AE81",
"c. c #B6B381",
"v. c #BAB584",
"b. c #BDB985",
"n. c #BBB788",
"m. c #BEBA8A",
"M. c #BBB990",
"N. c #C7BB87",
"B. c #C2BD8C",
"V. c #C4BE93",
"C. c #CEC786",
"Z. c #C5C18C",
"A. c #CAC38C",
"S. c #D3CB8B",
"D. c #D5D087",
"F. c #C6C291",
"G. c #CAC593",
"H. c #CCC996",
"J. c #C3C39A",
"K. c #CCC59A",
"L. c #CECA9A",
"P. c #D3CB94",
"I. c #D9CE93",
"U. c #D2CD9B",
"Y. c #D8C998",
"T. c #D4D091",
"R. c #DAD395",
"E. c #D5D19D",
"W. c #DAD39B",
"Q. c #FEDE81",
"!. c #E2D99E",
"~. c #D4CDA1",
"^. c #D6D2A1",
"/. c #DAD5A3",
"(. c #DDD9A5",
"). c #DCD4A9",
"_. c #DEDBA9",
"`. c #DDDBB2",
"'. c #E3DBA2",
"]. c #E6DAAA",
"[. c #E2DDAB",
"{. c #E3DEB1",
"}. c #EADEB4",
"|. c #E5E1AE",
" X c #EBE4AD",
".X c #EBEAAA",
"XX c #F3EDAE",
"oX c #F4F3AD",
"OX c #F8F3AA",
"+X c #E6E2B1",
"@X c #EAE5B3",
"#X c #EDEAB5",
"$X c #ECE6BA",
"%X c #EEEAB9",
"&X c #F3ECB5",
"*X c #F3EDBC",
"=X c #F9ECB8",
"-X c #EEF3B3",
";X c #F6F2B5",
":X c #FAF4B5",
">X c #F6F9B6",
",X c #FDFBB5",
"<X c #F5F2BC",
"1X c #FBF5BC",
"2X c #F6FBBC",
"3X c #FDFBBD",
"4X c #F4EDC3",
"5X c #F1EEC8",
"6X c #EBF7C7",
"7X c #F6F3C1",
"8X c #FAF5C3",
"9X c #F5FBC4",
"0X c #FDFBC4",
"qX c #FCF6C9",
"wX c #F5FBCB",
"eX c #FFFDCB",
"rX c #EDFED2",
"tX c #FFFDD1",
"yX c #FEFCD7",
/* pixels */
"l.u.t.) E w 8 7 8 8 7 6 w u u i t t t t i t 8 y q q q q w u B v i v t 9 9 9 9 r 9 0 9 0 0 2 0 9 9 w y B y v y v y y y B B 0 : : : 0 0 7 7 0 6 7 5 : 7 6 E ",
"l.@.R - - ; w R E ~ ' ' ` { { o.' ' ~ ~ W W W F M z x e e x M l r z z v v F F W W Q Q Q Q ! Q Q Q  .' / Q W J M z 4 2 - 2 2 2 e x u M M M M x x M r B q 2 ",
"j.) : : ` 3.C.W.'.&X<X9X6X6X6X-X=X=X&XXXXX X].W.P.Z.Z.F.A.A.K.N.N.Y.Y.Y.Y.W.~.}. X#X*X*X*X*X*X=X=X*X4X&X#X+X|.b.w.<.=...X.,.6.B.Z.G.G.G.G.G.A.b.Z.w.Z.G.=.",
"d.i : ` W.7XqX7X8XeXeXwXrXrXrX9X0X0XeX0X8X0X0XtXeXqXeXeXtXeXeX0XqX8X8X8XqX8X8XqXeXeXeXtXtXeXeXwXqXeXeXtXeXeX0XeXeX8X<X@X#X<X0X0XeXeX0XtXeX0X0X0XeX-X>XeX2X",
"t.6 : w.-XwX4XtXtXeXeXwX6XrXrX3X0X0X3X2X3X3X0X0X3X0XeX0X0X8X2X3X3X,X3X3X0X0X0X0X0X0X0X0X2X0X2X0X0X0X0X3X2X0X2X2X3X3X0X3X3X3X2X2X2X2X2X2X2X2X2X2X3X2X-X.X9X",
"O.6 0 T.0XtXwXtX9XwXeX0X9X9X9X3X9X3X3X0X0X0X0X0X9X3X0XeX0X0XeX3X3X3X3X2X>X>X>X3X0X2X2X2X0X0X0X0X9X0X9X3X3X2X3X3X2X2X3X3X2X2X>X0X0X3X0X0X0X2X3X3X-X2X3X.X2X",
"@.w 6 D.2X9X9X9XeX0X3X0X3X,X,X9X9X9XeXeXtX0XwXtXeXqX%X}.@X4XqX#X>X3X0X0X0X0XtX0X0XeXeX0XeXeXeXqX0X0XeXeXtXeXeX0X0X0X0X0X0X0X0X9X8XqXqX8X0X9X7XtX<X9XtXeX0X",
"@.w 6 R.0XtXwXeX0X3X,X,X,X,X,XtXeXwXtXtXwX$X{.F.x.,./ Y L ! / *.<.b.U.[.#X9XeX0X0XeXtXtXeXeXqXeXtXeXeXeXqX2X7X7XqXeXeX0X8X0X0XtXeXtXeXtXtXeXeXqXtX0X<XeX9X",
"t.2 e ).9X3X0X>X3XeXtXtXtX9X<XqXtXtX4X^.x.^ Z j s < > > 1 g k c A H T { *.5.w.^.$XtXeXqX8XqXeXeX0X9X9XeXtX0X2X0X0X0XeXeXeXeX0XeXeXeX0XeXeXeXeX0XeX0XeX0XtX",
"@.; e (.9X0X3X3X>X8XtXtX4X8XeXtX4X~.4.L a > , < k U =.q.b.m.V.Z.G.L.L.B.q.5.<.{ w._.7X0X0X0X0X7X9X0X8X7X<X7X8XeXeX0X9X9X2X8X8XeXeX0X8XqX0XeXeX8XeX8XeX8XeX",
"@.; e (.qX0X3X3X3X0XtXtXtXwX9X_.7.D 1 < d P =.B.U.+X7X8XeX0X0XeXeXtXtX0X7X*X@X_.H.b.m.^.7XtXtX9XqX0XeX9X0XeXyXeXeXeXeXeX0XtXeXtXtXeXeXeXeXeX8X0XeX8X0X8X0X",
"@.; 2 /.0X0X3X>X0XtXqXyXyX+Xv.] s . d | V.|.wXtXtXtXeX8X7XeXeXtX0X0XqXeXeXeXtXeXtX7X|.U.U.|.*XeX0X9X0X0XeX9X9X2X9X0X0X9X0X7X2X8X0X0XeXeXqX0X8XeXeX0XeX8X0X",
"@.6 e ^.0X0X3XoX3XqXqXtX$X<.m + % S 7.}.eXtXtXeXeXeXtXeXeXeXeX0XqX0X0XeX8X7X*X@X8XtXtX<X+X(.U.<X7XeXtXeXeX9X<XqXeX0XeX0XeXtXtX8XqX0XqXqX8X8XeX0XeX0X0X0X0X",
"t.0 e /.8X0X3X0X;XqXyX4X7.k . o Y F.4XwXqXeXeXtXeX0X8X8X8XqX8XeXeXeXeXeXeXtXtXtX7X@X#XeXtX7X[.8XeXeX<X/.Z.e.c.8.8.q.c.Z.E.@X<XeXtXtXeX0XeX0XtX0XeX8XtX0X0X",
"y.y x ^.8X3X3X0X<XeXrXJ.C O a T V.qXtX7XqXtXwX8X$X_.U.U.|.7XtXeXeXqX<X<X<X8XeXeXtXtXeX0X8X0XeXtX-XF.=.P m 3 a 1 a f h m D T { m.Y.+X8XtXtX0X0XeXeX0XeX8XqX",
"p.i x W.<X0X3XoX3XtX$X&.+ X C J.5XtXqXqXtX*XG.*.] G g g D *.q.[.#XqXtXtXeX0X8XqX0XeXeXeXtXeX8X_.7.C # # a h m D D A m 1 1 > > 1 G 6._.8XtX0X8X0XeX8X0X8X2X",
"a.B e '.0X1X3X3X0XtXV.d p > -.tXqX4XtXtX+X7.C < > % , , > , 1 C -._.eX0X7X8XtX*XtX8X8XeXtX@X6.D > > m T 1.G.L.{.*X#XL.w.1.^ c f X , ] H.9XtX8X0X8XtXeX*XtX",
"d.R 2 P.8X>X3X3X0X}.&.p + K L.qXtXwXqXK.&.k , s C U [ [ U N 1 , g | U.eXtX0X<XeXeX#XqXtX|.5.c , > C 8.+XeXtXqXeXeXeXeXtXtX+XG.=.H 1 < I v.#XeX0XeX0X0X1X0X",
"h.E 2 N.;X3X3X3X3XV.n = & 7.wX8XtXtX{.^ 1 > D 4.F.|.@X@X_.m.;.P , % U F.7XtX0X8X8X8XtX@X-.V X 3 | K.*XtXqX8X8XqX8X8XtXeXeXtXtX%XU.*.f O A b.*XeXeX8X0XeX;X",
"h.E 2 ,.&X3X,X3X8X>.p p d ~.tXwXtXeX7.s + K V.*XeXtXtXtXtX8X#XU.[ 1 , H F.eXtX8X7XeXtXF.V > g *.].tXeX7XqX8X8X8XqXtXtXeX4X7X0XtXtX+X<.g X P b.<XtX8X0XtX_.",
"d.E -  .#X3X,X3X1X/ p d L +XeXtXqX{.S + 1 c.7XtXeX7X7X<X7X8XeXeX_.,.g > *.#XeXtX<X0X#X-.1 1 [ @XqX7X4XtXtXE.q.&.,.q.Y.%XtXtX8X=XeXeX|.=.% # U L.eX0X0XeXP.",
"t.R $ Q @X3X,X3X}.S p d } 4XeXtXwXx.< % L +XtXtXqX8XtXeX0X0XtXeXeX+X{ O D ^.eX8XqXeX~.G . g b.tXtX8X8X}.q.P k c b b S ^ q.|.tXtXtX0X8XU.I # 1 -.#X0X0X8XG.",
"@.R - J  X3X3X3XW.n = = %.wXtXqX4X[ & 3 ,.tXeXqXeX0X8X0XeXqX0XeX0XeXm.3 1 x.eX<XeXtXv.1   I @X7XtXtX+X,.L / 4.K.V.q.} Z n &.F.*XtX0XqX8XB.A % c U.eXeX0XE.",
"r.R 2 W #X>X,X3XN.n = = } yXtXqXqXZ a s c.tX7XeXtX7X+X{.7XeX0XtX*XtX+XG > =.*XtX0X%X=.1 1 *.eXtXtX+X,.b } ^.tXtXqXtX$Xq.L c G B.8XtX<XtX%X*., % b.0XeXeX_.",
"u.) - B '.1XeX8X^.n 1 o T yXyXyXqXK % 1 x.7XtXqXeXw.=.=.X.(.2X0X8XeX*X*.> T |.eXtX*X{ < 1 1.eX0XeXb.3 *.(.eX.X8XeX*XeX;XZ.{ > L ~.yX4XyX4XK.b < ^ <X8XtX&X",
"u.) - J '.<X0XeX#XS * o L 5XrX5X5X| % d 7.eX7X<X#XE.^.Z.U U /.8XeXtX8X,.> I %XeX0X%XU % 1 x.tX8X0X1.1 b.<XeXqXeX;X0XtX8X%XE.H d &.}.yXyXqX4X .% S '.8XeX#X",
"u.) ; ( .X8X0X0X8X} < + C `.qXtX5Xx.% < *.tX7XtX8X0X0X8X-.f e.8X0XeX8X4.> I <XeX8X%XD # 3 v.tXeX#X` 4 |.0X#XeX*XB.*X8X*X0X0X-.d j B.yXqXqXyXx.< 4 B.7XeX#X",
"u.) : { XX0XqX8XeXv.s % d M.yXtXqXL.k o N |.tXeX8XqX0XtX6.3 w.eX*XqX8X*., | *X8XeX<XH > 1 v.eXeX#XT > F.0X7XeXE.;.%XeX0X8XtX^.S = %.4XqX4XyX~.S % =.=X0X#X",
"u._ w 2.OX0X0XeX0X}.Z O < } wXwXtX*X8.f > -.^.4XeX8XeX#XH 4 G.tX*XtX%XD > 6.7XwXeX8XU > > 8.tX<XtXw.1 U ^.8X+X5.-.<X8XtX<X0X4XY & Z ).tXqXtX*X} % Q  X0X*X",
"h._ i g.>X0X8XtX0X=X` > o j J.yXtXeX%X5.Y b D ,.Z.q.6.=.A ..#XtX8XtXU.s s L.eXeXtX<X=.1 % *.0X<XeX#X-.I { 6.5.=.F.eX&X0X8XeX*XY < j ~.yXtXqXtX>., n [.0X%X",
"u.( t D.:X0X0X8XeX=XA.U < + T +X7XqXtX%XU...G k I D D T 5._.8X0XeX|.*.f ] #XeXtXeX7XB.k # P _.eX8XqX<Xm.*.=.5.U.8XtX0XtXtXtX{.S < n ].tX8X8XeX4.1 k (.0X&X",
"t.( w D.XX0X0X7XtX8XtXb.C + a =.[.tX0X8XeX+X_.H.b.F.^.|.7XtX0X7XtXv.c N v.eX0XeX0XqX_.P # f c.8X0X0X8XqX8X7X7XeXtX<X8X7X7X7XA.s # L qXqX8XtX8X>.4 g (.eX%X",
"u.( w s.>X<XtX0X8XeXtX<Xv.H O a T ^.8XeX%XeXtX8XtXtXeX7X8XtXtXeXb.D g X.{.eX0XtX8XeX7X5.1 > H F.7XtX<XqXtX0X7XeXeXeX<XeXtXE.D s o 0.qX8XtXeX7X*., V ^.eX&X",
"u.( w C.:X1XeXeXeX;X&XeX9Xc.m > 1 | F.8X8XeX<X0X8X7X7XtXtX8X@XF.I > D F.eXtX7XeX7X0XeXY.T 1 > [ L.tXtX<X%X7XtX8X0XeXeXeX+X<.f o S U.tX8X8X8X8X` , z  XeX*X",
"j._ w s.:X0XeX<XeX0X&X0XtX%Xc.C O O V -.Z.+X*XqX8X8X7X7X|.v.*.s > V b.wXtXeXeXtXeXeXtX8XZ.P + 1 U m.%XqXwXtXtXtXtXtX7X^.*.k , f B.*XeX0X8X8X=XD > Z <X8X=X",
"l.O.7 s.:X0X0X;X0X0X0X8X9X0X0XE.=.A , , g ! *.=.<.6.4...P j 1 f { U.<X7X<X7X8X<X7X<X<XtX7Xv.P s > V ;.F.|.*X#X+X{.F.,.I < , P 6.8X0X8X0X8XeXE.g # ..8X8X*X",
"l.O.6 3.>X3X8X0X3X1X0X0X9X9XtXeX;XE.6.U Z k f s g j g 1 d S T n.|.0X8X<XtXtXeX0XtX0X7XeXtX*XK.| k < s k P { ..] T k > , k ..U.*XtX<X8X8X0XeX1., * G.8X8X=X",
"l.O.6 2.=X3X1X0X0X0X1X3X0X0X8X0X8X0X0X|.E.v.5.4.;.;.;.,.q.G.{.4XqXtXtXtX<X_.G.m.H.^.^.{.<XeXeX{.m.=.^ C h 1 > o % % k } B.+XeXeXeX1XeX8X0X<X` , Z ;X<XeX<X",
"l._ : 2.XX0X8X;X0X0X3X*X0XeX0XtX-X|.eXeXtX1X8X0X4X*X5XwXqXqXeXeX0X7X|.F.=.I b f j A ] ..4.Z.{.eXtX7X+X).M.,.} L Y ;.B.{.tXtXqX<X3X7XeX0X0XE.N 4 5.eX0X0X*X",
"l.) : 3.:X0X0X3X8X1X3X3X0X8X2X0XU.N.2XqXeX<XtXtX8XqXtXtXtXqXtXeX#XB.] g , 3 f N f s g g 1 c ! B.$XqXqXtXtX7X5X%X{.4XtX4XqXtXeX8XeX8X8XeXeXN.> A _.0XtX8X%X",
"Q._ 6 3.-X3X2X9X0X0X0X0X0XeXwXeX*.T.0X0X3X;X0X;X0X;X3X0X<X0XeX_.4.g 1 f D 1.1.6.0.0.q.1.} c > c ] H.eXtXeX8X0XeXtXeX0X0X0X0XeXeX-XtX<XtX<X! > 6.*XtX3X8X<X",
"l._ 6 #.oX,X2X0X0X0X3X0XeX0XeX-X{ /.0X0X>X>X3X<X3X<X0X8XeX8XP.[ f < P 0._.&X3X0XtXeXqX0X%Xm.^ 3 1 G Z.%XtXeXeX8XeX0XeXeXeX0X0X8XtXtX<XwXZ.Z I /.0X0X1X8X&X",
"l._ : #.oX2X9X0X0X3X0X3X0XeXeX(.T  X3X0X;X0X3X3X1X3X0X<XtXW.{ , % ^ V.8XtX3XtX;X0X8X<XeXtX4XU.{ 1   T V.0XeX8X0X0XeXeX0X0X0X0XqX9X9XtX/.I H E.0XtX3X0X0X#X",
"j.O.6 #.oX3X9X0X0X0X3X0X0X0X9XG.H 2X8X0X<X0X>X0X>X0X0X&X0X=.a , } ].8X0X1X X=X0X0X0X8X8X=XqXtX+X*.O 1 ` #XeX7XeXeXeX0XeXeX0X0X0X%XeX2X{ V e.eXeXeX1XeX0X#X",
"j.O.6 +..X2X0X0X0X0X0X0X0XeX0XB.N eX0XeX;X0X<X0X0X3X0X0XR.c > S Y.eX8X&X<XtX3XeX8X0XtX0X*X=X*XtX^.P o 3 G.tX0XtXtXeX0X0X0X0X0XtX9X-X8.H 5.0X<X<X0X8X0X0X&X",
"h.@.6 +.oX>X9X0X3X0X3X0X0X0X0Xm.g 0X0X0X;X0X;X3X0X0X0X0X,.> g ,.qX0X=X0XeX0XH.0.0.6.e./.qXtXqXeX<Xq.> X -.<X0XeX0X0X0XeXtXeXeXeX_.6.{ c.-X0X8X0XeX0X8X1X:X",
"j.t.0 +.oX2X2X0X3X3X3X0X0X0X0Xm.1 ;X0X8X1X3X>X0X3X0X0X#XA , C ^.qXeX8XtX&X0.` A F A N J 4.].qX8XtX_.V O G (.eX8X0X0X0XeX0X0X3X_.8.<.Z.8XtX#XeXeX0X3X0X1X1X",
"j.y.y +.oX3X3X0X0X0X3X3X0X0X0Xb., @X0X<X8X0X3X0X<XeX0XW.1 s c 4X7XtX8X8XG.I Q N.K.A.=.N c 4.qXeXeX*XU , 3 G.tX0XeXeXeXeX8X<X#X8.<.#XtX8XeX-X8XeX1X1XeX0X0X",
"z.a.y s.1X;X0X3X0X3X3X3X3X0X0XG.X w.9XeX<X;X0X0X0X0X0X_., 1 N @XtX8X8X#X{ D P.8XeX0X*XN.3 k (.tX0XqX=.4 1 1.eX8X0XeXeX0X<XU.1./.-XeXeX9X8X0X0X0X3X3X3X0X;X",
"z.a.B s.3X;X0X0X0X3X3X3X3X0X0X/.f { 8X0X8X0X0X1X0X0X0X[.1 # g W.qXtXeX(.I J 1X0XtX8X0X{.F < 4.8XtX0Xv., 1 *.0XeX8X0X3X[.Z.Z.(.-X8XeX0X0X0X0X0X0X0X0X0X3X1X",
"z.p.B f.0X;X3X3X3X3X3X3X3X0X0X<XU s |.eX8X0X0X0X0X8X8X@Xk # f n.*XtX8X(.[ F e.*X0X;XeX7XQ 1 q.7XeXeX^., 1 { 7X0X8X#X/.H.E..X2X0X0X0X0X0X0X0X3X0X3X0X3X3X:X",
"k.t.i s.3X;X2X0X3X3X3X3X3X3X3XtX5.O 0.8XeX<X0X0XeX<X<X<XU > < | [.tXeX3XU.1.,.&XtX<XqX%XG % v.8X8X9X^.1 1 =.*X0X7X|.E.|.eXeX8XeX8X9X2X0X0X0X8X0X0X0X3X0X3X",
"z.o.8 3.=X=X3X0X3X3X,X3X3X3X0XtX^.k c P.tX0X0X0XeX<X0X0X,.f # c N.7XtX0X*X(.P.&X0X1X8X/.c , V.eXeX0XB.1 > 6.8XeX<X<XeXeX<X<XeX0X9X0X0X0X0X0X0X0X3X0X3X3X:X",
"Q.( 5 9.;X3X0X0X3X3X3X3X3X3X0X8XeX,.o | &XtX0X8X0X0XtXtXL.U , & Y B.*XeX0X<X0X1XtXeX[.X.% L =XqXtX7X=.> % Z.tX0X0XeXeX0X7X<X<X0X0X0XeX0X3X3X0X3X3X0X1X:X3X",
"k.R ; $.XX<X8X3X3X3X,X3X3X3X3X8XtX[.G m <.<X0X0X0XeX0XeX4Xv.T % < P v.].=X1X0X1X&X(.,.4 3 4.eX0X8XU.Z > k (.eX<XtX0X<X<XtXeX-X0X0X0X0X0X3X3X0X3X0X0X3X3X3X",
"k.R ; :.XX&X1X0X3X3X3X3X3X3X0X0XtX0Xb.1 j E.1X0X8X0X<X*XtX%Xb.S 3 < k J X.0.v.v.X.J 4 1 -.=XqXtX*X4.% , [ *XqXeX0X0XeX0X<X1XeXeX9X>X0X0X0X0X0X0X0X0X3X3X0X",
"k.t $ :.=XXX,X,X3X0XeXqXtX0X3X1X0X0X[.` O V v.7X8X0X3X0X3X,XoXT.1.A , % < d j < 1 1 b ,.|.0X>XtXG.A X c N.8X8X0X0X0X0X0X3X3X0X0X0X0X0X0X0X3X3X0X0X0X0X0X;X",
"d.8 $ :.=X=X,X,X3X0XeXqX8X0X3X0X1X0XeXN.c 1 A b. XtXeX;X1X0X0X3X.XA.;.Y V k j K ^ 8./.<X0X3X0XA. ., * .. XtX0X0X0X0X0X3X0X3X3X0X0X0X0X0X0X0X0X0X0X0X0X0X<X",
"a.8 $  .=X=X3X,X3X0XeXtXeX3X3X0X;X1XtX7X5.c > k -._.8X0X3X3X;X0XeX0X<X X).~.).).$X4X3XtXeX&XA.` 1 # P U.eXeX0X0X0X0X0X0X0X3X0X0X0X3X0X0X0X0X0X0X0X0X0X0X2X",
"p.l $ / &X=X,X,X,X0XeXqX0X3X3X3X0X3X>X0X;Xw.I > , A w.#X7X1X0X1X;X*X<X8XtXtXyX5XtXqXqXtX0Xe.A 4 X e N.0X0X*X0X0X0X0X0X0X3X0X3X0X0X0X0X0X0X0X0X0X0X0X0X0X1X",
"p.r @ / }.XX,X,X3X0XeXeXeX3X3X3X0X3X#X2XtX<XL.] f o g | b.(.9X0XeXeXeXtXtXtXqXyXqXtX8X[.1.B > X c 6.#XtX8X3XeX0X0X3X0X0X0X0X0X3X0X3X0X0X0X3X0X0X3X3X3X0X1X",
"i.r $ / ].=X;X3X3X0X0X0X0X3X,X3X3X3X2X3X0XeX0X|.b.U > O g ] ;.Z.W.#X=X8X%X=X4X{.).V.>.L s # # c 0.;X8X;X0X0X2X0X0X0X0X0X0X3X3X0X3X0X0X3X0X0X3X3X0X0X3X0X>X",
"i.l @ Q ].*X>X>X3X3XeXeX0X3X,X3X2X3X0X8X2X8XeXtXeX^.;.D s 1 < g Z I ^ ^ ^ ^ / n S c , # , c A N..XtX0X;X0X0X>X0X0X0X0X3X0X0X0X0X3X0X0X3X3X0X3X0X0X0X0X0X<X",
"$.l @ Q ].;X>X,X3X2X0X0X0X3X,X3X3X3XoX3X0X0X7X9X8XeX9X^.,.L k 2 , # # % * = % % # % 3 4 x -.[.eX<X;X0XeX0X2XeX0X0X0X0X9X3X3X0X3X0X3X0X0X3X0X0X3X0X0X0X3X;X",
"o.9 * Q ].=X4X=X>X3X0X8X3X,X,X3X3X0X3X3X3X0X0X0X0XeXeXtX4X[.V.:.` S b c g g g n c n Q ,.W.=XtX0X0X0X3X3X0X0X3X0X0X0X0X0X0X0X0X0X3X0X0X3X0X3X3X0X3X3X1X1X3X",
"o.* @ F Y.=X:XOX>X3X0X8X3X,X,X3X3X3X3X3X1X1X1X3X0X0X8XeXtX8X=X*X].Y.P.G.V.N.B.N.B.Y.[.&X8X0X0X3X0X0X0X3X3X0X3X0X0X0X0X0X0X0X0X3X3X3X1X3X3X3X3X>X3X0X3X:X0X",
"O.8 @ F Y.OXOXOXoX;X1X1X;XOX,X:X:X:X:X:X,X3X1X1X3X1X=X1X8X0X8XtX8X8X8X8X1X8X8X8X8X8XqXeX8X8X0X:X3X3X3X1X3X3X3X3X1X3X3X8X3X2X<X3X3X3X3X3X3X3X3X1X3X0X;XoX3X",
"i.v $ l 9.!.XXOXOX1X1X1X1X:XOX:X:X:X3X:X=XOX:X:X1X1X1X1X1X=X=X=X1X=X1X1X1X1X1X8X0X3X1X=X1X0XeX:X3X:X:X:X3X3X3X3X3X3X3X0X0X3X8X3X3X3X1X3X1X:X1X1X:X1X>X2X:X",
"a.E $ @ R 2.C.C.D.I.R.W.I.D.D.S.I.!.R.S.s.3.s.C.S.S.I.I.Y.I.W.W.!.'.!.!.!.'.'.!.'.'.'. X X!.W.I.S.s.N.C.I.R.I.R.R.R.R.E.W.W.E.R.R.R.R.R.R.R.R.'.!.!.!.S.2."
};
