/* XPM */
static char *_024f90bfdff48b5ce36699ced6755d5[] = {
/* columns rows colors chars-per-pixel */
"78 69 228 2 ",
"   c #6F3C0A",
".  c #5F430A",
"X  c #65470B",
"o  c #6C440B",
"O  c #6D4B0C",
"+  c #74440C",
"@  c #7A460D",
"#  c #744C0D",
"$  c #7B4C0E",
"%  c #6D520D",
"&  c #6B5A0E",
"*  c #74530E",
"=  c #7B520F",
"-  c #76590F",
";  c #7D4E11",
":  c #7C5411",
">  c #765A10",
",  c #7C5B10",
"<  c #7A6212",
"1  c #834C0F",
"2  c #81520F",
"3  c #804F13",
"4  c #835511",
"5  c #8A5311",
"6  c #845B13",
"7  c #8B5B13",
"8  c #835D19",
"9  c #8E5E19",
"0  c #925D14",
"q  c #915D19",
"w  c #846213",
"e  c #8B6314",
"r  c #886817",
"t  c #8B641A",
"y  c #8C6A1B",
"u  c #946515",
"i  c #976A15",
"p  c #93631B",
"a  c #99651B",
"s  c #936C1C",
"d  c #9A6C1D",
"f  c #8C7619",
"g  c #9B731C",
"h  c #98761C",
"j  c #A26A1C",
"k  c #A5731B",
"l  c #A6781C",
"z  c #876B22",
"x  c #8D6D22",
"c  c #956A23",
"v  c #9C6C23",
"b  c #8C7624",
"n  c #937322",
"m  c #9B7323",
"M  c #957825",
"N  c #9C7B25",
"B  c #9C7C2A",
"V  c #9D7F34",
"C  c #A26D24",
"Z  c #A27225",
"A  c #A97726",
"S  c #A37B24",
"D  c #A47329",
"F  c #A37C2A",
"G  c #AC7C2B",
"H  c #B17C2B",
"J  c #A97932",
"K  c #B27E33",
"L  c #BA7F42",
"P  c #9B832A",
"I  c #9E8931",
"U  c #A78528",
"Y  c #A3832C",
"T  c #AB832B",
"R  c #AC892C",
"E  c #B28525",
"W  c #B68927",
"Q  c #B2852A",
"!  c #B58A2B",
"~  c #BA8C2E",
"^  c #BB902E",
"/  c #A48432",
"(  c #AD8433",
")  c #A48B33",
"_  c #AB8B33",
"`  c #AD893C",
"'  c #B38B33",
"]  c #B88935",
"[  c #B5853A",
"{  c #B48A3A",
"}  c #AB9238",
"|  c #B3923B",
" . c #BD933A",
".. c #B99638",
"X. c #BCA33C",
"o. c #C2953D",
"O. c #C39B3D",
"+. c #C99C39",
"@. c #C1A33F",
"#. c #D5A43D",
"$. c #B88B42",
"%. c #B79746",
"&. c #BA9541",
"*. c #B49B43",
"=. c #BD9A44",
"-. c #B69549",
";. c #BBA347",
":. c #BAAC51",
">. c #C39442",
",. c #C39B44",
"<. c #CB9B44",
"1. c #CA944C",
"2. c #C69A48",
"3. c #D09E47",
"4. c #C4A344",
"5. c #C4A44C",
"6. c #CAA94A",
"7. c #D5A847",
"8. c #DBAB4A",
"9. c #CAB44B",
"0. c #D9B34C",
"q. c #C9A955",
"w. c #D4AB54",
"e. c #D8A955",
"r. c #CAB459",
"t. c #D4B353",
"y. c #DBBC56",
"u. c #D4B35C",
"i. c #D8B758",
"p. c #DCBB5C",
"a. c #E1AE49",
"s. c #E5B64A",
"d. c #E3B44D",
"f. c #E1AF56",
"g. c #E4B553",
"h. c #E9B657",
"j. c #E6B953",
"k. c #EBBB54",
"l. c #E3B45B",
"z. c #E3BB5C",
"x. c #EBBB5A",
"c. c #F1BE57",
"v. c #D8AE61",
"b. c #D7B664",
"n. c #D4BB65",
"m. c #DCBC64",
"M. c #E3BC63",
"N. c #E8B967",
"B. c #E3BC6B",
"V. c #F1BE66",
"C. c #F1BE74",
"Z. c #D7C459",
"A. c #DCC35C",
"S. c #E8C359",
"D. c #F3C45C",
"F. c #F6C95C",
"G. c #F4D05F",
"H. c #DBC466",
"J. c #DDD26A",
"K. c #DCCC73",
"L. c #EBC264",
"P. c #E5C866",
"I. c #E3C36C",
"U. c #ECC46C",
"Y. c #EBCC6C",
"T. c #F4C463",
"R. c #F5C366",
"E. c #F6CB63",
"W. c #FBCC64",
"Q. c #F4CC6C",
"!. c #FACD6C",
"~. c #E9D369",
"^. c #FCD465",
"/. c #F7D668",
"(. c #F5D36C",
"). c #FBD46C",
"_. c #FCDA6C",
"`. c #E5CA74",
"'. c #ECCC74",
"]. c #EAC978",
"[. c #F3C776",
"{. c #F3CD74",
"}. c #F9CD74",
"|. c #FCCC7A",
" X c #EBD578",
".X c #F5D573",
"XX c #FBD474",
"oX c #F4DB75",
"OX c #FCDC73",
"+X c #F4D47B",
"@X c #FCD57B",
"#X c #F4DB7C",
"$X c #FDDC7B",
"%X c #FDE16E",
"&X c #EFE37B",
"*X c #F4E476",
"=X c #FCE275",
"-X c #F5E47C",
";X c #FCE37C",
":X c #F5E97C",
">X c #FBEA7D",
",X c #EFDC81",
"<X c #F7D785",
"1X c #FDD581",
"2X c #F5DD82",
"3X c #FDDD83",
"4X c #FCDD8B",
"5X c #EEEB86",
"6X c #F5E384",
"7X c #FDE384",
"8X c #F5EB85",
"9X c #FCEC83",
"0X c #F5E48A",
"qX c #FDE48B",
"wX c #F6EB8A",
"eX c #FCEC8B",
"rX c #F4F185",
"tX c #FBF185",
"yX c #F6F28B",
"uX c #FCF18C",
"iX c #FEE592",
"pX c #FDEC93",
"aX c #F9E994",
"sX c #FEED99",
"dX c #FEF293",
"fX c #FCF896",
"gX c #FEF29A",
"hX c #FFF8A1",
/* pixels */
"&.s u i k E W W W W E E E W ~ ~ ~ ~ W Q Q Q E Q E Q Q ~ ! Q Q ! ' ! ' ~  .~  . . .~ Q ( l d u d k d k S Q Q ~ ~ ~ ~ ~ E Q ^ ! E W ^ W W ! E E E l g 6 # s ,.",
"n d o.7.#.#.s.s.k.s.s.s.j.j.d.g.j.h.h.g.g.h.a.j.j.g.j.k.g.a.g.h.g.g.g.x.x.l.h.h.k.x.k.g.8.3.#.7.7.8.8.8.a.f.c.x.x.k.j.d.a.a.d.0.s.h.s.s.s.a.s.s.8.+.i # 4 ] ",
"t >.0.k.F.s.F.F.F.F.F.F.D.W.D.D.T.T.F.R.R.T.!.W.D.h.0.a.a.8.8.a.8.8.8.a.8.8.a.a.a.s.a.8.#.#.#.7.7.8.7.a.k.D.D.D.D.D.c.D.k.k.D.c.D.F.D.D.D.k.s.s.s.a.W = # S ",
"p l.8.d.^.F.W.W.G.F.F.^.W.).^.!.).).).).).!.W.c.#.W A k k k k k l k j k k k l l l k k i i i u u u i k E +.a.F.W.!.).!.W.W.^.W.F.W.F.F.F.^.F.F.k.s.j.o.4 o u ",
"i a.x.V._.^._._._.).oX_._.oXOXOXOX+X}.@X@X@XC.L C 1 + 2 = # * # # # # $ 3 ; 4 ; @ # @ ; @ # @ # 1 2 = : p H v.}.3X}.}.).).).^._.)._.)._.)._.G.F.E.j.3.a   t ",
"i s.x.R._./._._.OX_._.OX_.$XoX$XOX$X@X$X3XC.1.5 @ @ = 9 t c y p x x c v C D D Z d d v g v d A S Z j u 2 @ # ( w.@X@X!.!.).!.).).)._._.(.).).G.G.T.h.7.j   p ",
"i a.c.V.OX_._.OXOX_.OX%X=XOX(.;XOX$XXX@X@X3.p + 1 Z  .q.w.m.u.i.v.u.v.M.B.N.L.N.z.l.z.z.z.z.T.N.z.l.w. .s # 2 H V.3X}.Q.OX!._.OX_.(._.XX_._.^.G.D.x.e.Z + p ",
"u a.D.R._._._.%XOX=XOX=XOX$X.X;XXX$X}.@X{.F + 4 H w.[.XXOX$X$X$X$X@X3X1X3X3X;X$X@XXX@XOX$X@X$X$XOX@XOXT.O.g = 4 <.XX!.!.OX).OX).XX_._._._.XX_.^.E.z.8.Z @ c ",
"u a.V.!._./.OX_.%XOXOX=XoX=X$X;X.X@X$X@Xl.6 + T z.XX$XOXoX(._.oX_.oXXXOXXX$X).).(.!.(.).).).(.OX_.XXOXOXS.+.e o v L.$XXXOX).).OXOX)._.).OX_._.^.!.c.8.Z $ v ",
"u a.R.W./._.%X=XOXOX=XOX=XoX7X;XOX$X3X}. .: u y.$X$XOXOX=XOXOXOXOX$X$X$X;X$XOXOXOX_._.OXOXOXOXOXOX)._.=X_.S.( + : w.7X$XXXXXOXOX_.OXOXOX).OX^.^.!.V.f.C $ m ",
"u #.W.}._.%X=X_.%XOX=XOXOX=X;X$X7X@X4XL.i 2 U L.XX_.OX_.=X=XOX%XOX#XOXOXOXOX_._._.OXOXOXOX=XOXOX_.(.(.OXoXG.e.e # ! Q.$XOX@XOXOXOX_.OXOXOX_._._.W.T.f.D ; v ",
"u #.W.).%X%X%X=X=X=XOX=X=X$XOX.X7X}.$Xi.= 6 9.=XoXOX;XOX;X$X$X;X;X=XOXOXoX(.OX_.OXOXOX_.%XOX=XOXOXOX=XOX=XOXU.H # d i.}.XXOX@XXXOXOX_.OXOXOX_.^.W.T.l.H ; v ",
"i #.F._._._.%X=X=X=X;X=X-X$X;X7X$X{.@XG # e Y.OX;X.XoX7X7X$X$XoX.X(.P.y.9.4.@.4.9.t.A.G..XOX_.oXOXOXOX.X.X;X+X6.w =  .}.$XXXOXOX=XOX=XOX%XOX_.^.E.R.l.A 2 p ",
"k a.R.OX_._.=X=X=X=X;X=X$X;X.X7X$X3Xl.e @ ' #X$X$X7X$X$X$X3X3X(.p.5.R y w w , < w < w h @.i.P.(.oX$X$X;X$X(.3XN.S = N U.3XXX$X$X$XOXOX=X%X%X_._.W.Q.l.Z : p ",
"l s.R.)._.%X*X=X*X=X;X;X;X=XoX;X$X$X' # 2 e.7X7X;X7X7X3X$X1Xp.=.M w - # * < , w w w , w y h U ..i..X$X$XOX$X3X$X6.4 6 w.7X}.$X$XOX=X=XOXOX%X_.^.E.W.f.Z 1 p ",
"l s.T.).%X=X*X=X*X;X-X=X-X$X7X7X+XL.s # Z U.;XpX7X$X4XqX+Xu.( w X o w N _ 4.w.t.t.i.t.,.R y < 6 N t..XXX@X7X}.3XU.N = ' +X$X$X@X$X$X;X=XOX%X_.^.W.R.e.j ; p ",
"W k.F.!.OX=X*X=X=X>X;X>X-X=X7X7X+X .2 = >.|.;X6X7X7XqX+X6.Z 4 : 6 F =.l.Y.$XOX$X$X$XOX@XL.i.X.m w U t.OX$XOX}.4X$Xo.: s p.qX$X$X$X=XOX=XOX%X_._.F.T.8.a @ p ",
"W k.R.XXOX=X*X=X:X=X-X;X-X;X;X3XY.h = e l.3X7XoX;XpX+X,.t # : F w.Q.+X$X$X$XXX@X$XOXXX$X$X;X@Xz.T e S i.@X$X3X3X4Xi.t # ' 3X3X;X;X$X;X=X%X%X_._.W.T.3.p @ t ",
"W k.G.).=X%X*X>X>X;X;X-X;X;X$XoX5., = ( [.4X9XoX$X;Xt.y o : F e.@XqX$X$X$XXX(.OXOXOX).).OXOXOXOXS.E e h 0._.3X$X3XQ.( O y M.$X3X$X;X$X=X=X=X_.^.W.V.3.0 @ p ",
"^ S.F.OX%X=X>X=X=X>X>X-X;X6X7XY.m # : e.}.@X$X;X7XP.R * = v M.|.3X}.Q.$X$X(.OXOX).).OXOXOX_.OX_._.Z.l = h S.}.@X3X$X5.* - ,.3X$X$X;X;X=X%X%X_._.W.D.3.q + q ",
"^ F.G.G.9X;X;X9X-X&X8XyX6X7X4Xe.4 3 s .X(.:X3X4X$X5.> . b q.7X4X3X3X4X@XM.5.2.7.6.,. .A.;X.X$X7X3X.X ., O 2.%XoX9X#Xu.M o m [.4X}.qX$X*X*X*X%X=X(.L.3.0 @ 0 ",
"~ F.^.G.9X=X=X7X7X:X8XwX0XqX+X{ 2 :  .OX-X7X7X<X`.N % % ;.'.4XqXqX<XM.=.F r 7 7 4 4 , s 4.P.$X7X3X7Xi.s o ` (.=X9X=X'._ % 6 v.3X@X4X$X=X*X>XoX/.Q.L.3.0 + 7 ",
"~ W._.^.;X-X;X;X-XtX8X6X6XpXU.s ; u L.$X7X9XqX+Xu.% % b '.eX7XqX4XI.| w # # 2 e s m y - r 6..X7X$XqX.X' O d S.=X>X;X7X6.* O ] |.1X$X=X>X*X>XOXoXW.L.3.0 + q ",
"~ F.%X_.;X;X9X-X-X8X8X8XeXqXq.= 2 ( 3X;X;X;XqX+X*.X , 5.7XqXqX4XI.&.8 * w F o.e.z.L.i.U , M A.$X3X7X<Xq.- t t.=X=X.XqXm.y # s N.3XOX>X>X:X:X%XOX(.L.<.7 @ a ",
"o.F._._.=XeX9X-X7X8X6XeXpX<X( o 7 w.7X7XoX9X7X+XY % z `.qX3XqX'.5.y O r =.B.}.3X7X$X@Xt.r w ;.$X7X<X4XL.r w 9.=X;XoXqX'./ # : w.3X+X$X9X=X:X%XOX(.V.<.1 @ D ",
"o.W._._.=XeX9X;X6X9X6XeXqXm.r O N {.7X9XoXtXqXU.r * B 7XqX2X7XI.) * * _ U.4X3X@X$X@X;XQ.h , Y .X9X$X7X'.e , 4.;X9X#X7X#X=.* # { @X@X$X;X*X*X/._.W.T.<.5 + D ",
"<.E.^.%X-XeX9X-XeX9X6XdX,X%.* = &.3X$X7XoX9XqXp., - *.qX7XqXqXm.N X w w.3X1XN.6.L.$X7XY.h , R OX7X@XqXY.w , 9.=X>X;X6XqXb.: # m }.3X;X;X>X:X%X_.(.Q.7.q @ C ",
"3.F.^.%X$XeXtX:XeXeXqXsX].M * w u.7X-X;X-X-XiXq.- , r.qX3X4XqXm.n X s U.qX{. .i ..Y.XX0.r w @.$X$XXX7Xm., 6 Z.*X-X;X7XiX'.y = 9 U.4X;X;X>X:X=XoX).XXl.a @ C ",
"+.^.^.%X*XuX8XfX-X2XqX4Xm., % B +XeX7XtX-XtXqX5.* % 5.qXpX#X7X`.n O c +X4X}...e 6 R ..s w M S.$X$X7XqX ., r P.>X;XeX,XqX4XB # 7 e.1X7X7XoXtX=XOXOX!.V.G @ C ",
"+.).^.>X-XuX8XuX6XeXqX4X$.# # %.7XqX7X9X9X9X+X5., , u.qX3XqXiXH.r O n U.4X4Xp.F 6 e i w l 7.7X;X;XqX'.h % ) oX>X-X9X6XqXiX%.# 4 ( +X7X;X*XtX=X=X).!.N.G @ D ",
">.!.^.=X$XeXyX8XeXpXqX].t # , n.pXeX6X9X9X-X3Xq.- * q.7X2XiXqXI.b O y B.1X3X3XS.4.@.o.O.z.;X$X$X7X$X4.< < 6.;XtX-XeX6XqXiXb.: : 6 N.7X=XtX>X%XOX!.Q.V.A @ C ",
" .!.^.=X6XeXfX5XeXqX4X2.* # M 2XpX9X9X:XtX=XpXM.w . *.eXqX7X7X+X| # * =.{.4X$X$XOX.XXXXXOXOX$X$X$X6.f w ..'.>XtX-XeX6X2XsX XJ # + &.$X;X9X*XOXOX).!.V.H @ D ",
"' W.).=X0XyXfXyXwX4X1Xy # = q.qXwXeXyX:X>X>X4X+X/ . B  XqX#XaX7Xr.t # w ,.I.$X3X=X$X$X7X=XOXXXL.@.f , R Y.7X:X9X-XeXeX0XiX<Xv.# # i '.7X9X-X=X=XOX}.V.H $ D ",
"T !.^.%XwX5X5XfXpX0XB.# @ 8 ].qX0XrXuX>X>X>X3XiXr., > ;. XqXpX3X'.5.B X = F t.p.~.(.XXXXL.w.^ h 6 w U u.7X7X9X9X8XuXeXeXqXiX[.t ; = 6.$XtX>X=X=XOX!.R.H @ D ",
"T !._.=XeXwX5XfXdX<X[ + : ` qXqXeX8XrXtX:X>XqXqX'.| , r 5.2X2X3XqX+XB.F e r y h E ^ ..^ l g u r g ..P.#X7X7X:XtXtX8XeXiX4XiX<X$.= # N Y.9X>X=X=XOX}.V.H @ D ",
"T ^._.;XuXwXfXyXaX`.6 $ 4 v.iX6XfX5X:XuX:X>XqX#XqX+XY % M r.7XeXiX+XqX{.m.,.N h r w r f l U ^ i.XX$X7X7X7XeXtXtXtX0XwXiX4XiX4XB.= * > i.9X;X=X=X).!.V.H @ C ",
"S ).7X,XpXaX0X6XpX;.* # h #XeXwXrXrXrXrX9X9X8X8X5XuXJ.P < < 9.~.>X>X>XtXtX:XG.y.0.9.9.s.P.G.>X>X>X9X9X9X9X9X>X>X>XrXtX8XwX8X6XeXb - # { 1X1X9X9XXX@XN.C 1 C ",
"l !.-X6XdXiXgXaX2X/ O * | 7XeX8XrXrXrX9X9X>XuXrX8XtX&X9.f > f } A.oX*X=X=XoX%X%X%X%X%X>X>XtXS.~.OX9X9X:X8XtX>X>XtX>X9XtXwXwX8XeX:.< % t B.3X;X7X$X@XN.C @ j ",
"E W.#X,XpXqXsXaXm.< o t u.qXeX8XrXrXrX>XtX9X6X7X7X7X6X;Xt.h 6 e g ^ A.OX>X>X=X>X>X>XoXS.S.Z...9.~.9X9X9X8XtX>X9X9XrXtX8X8XeXeXpX`.x O # 1.4X;X;X$X@XN.j @ a ",
"^ Q.oX6XqX6XaX0X| * * &.$X6XuXeXrXrXrXtX>XtX#X$X9X3X$XeX$Xf.6.G e 6 l W @.+.Z.Z.0.9.X.X...@.;.Z.#X9XeX9X9XeX9X9XtXtXtXrXwXwXfXeX0X` :   D 1X;X;XoX@XN.j @ a ",
"~ (.#X9X7X2XiX`.z % 6 I.qXqXeXyXrXrXtXrX9XtX9X7XeX7X@X7X9X@X$XL.w. .S i i h f f f f P } ;.i.&X7XeXuXuXuXwXeXtXtXtXtXuXuXwXeXuXeXqXu.8 # 4 B.-X7X@X}.l.C @ a ",
"^ (.=X9X7XeXiXq.* * N 3XpXqXeXuXyXyXrXtXtX9XeX7X6X9X7X7X9X7X$X$X;X;X(.p.t.i.9.9.9.Z.Z.~.-XeX9XeXeXeXyXuXuXeXtXtXuXeXeXuXuXwX0XiXiX<XB +   $.$X7X$X|.l.j @ p ",
"o.(.=X9X7XeX<XB * = 5.qXqXpXeXuXtXrXtXrXtXtXrX8X8X8XuXuX9XtXtX9X6X9XuXtX7X&X9X6X:X9X:X9X7X9X7X7X7X8XwXpXuXfXuXeXuXuXeXdXeXpXqXqXiXiXq.8 o c I.$X3X|.f.q   p ",
"+.^.;X9XoXeXv.= = : `.iXqXeXeXtXuXuXtXuXtXtXrXfXyXrXyX8X5XdXuXuXtX0X:X8X8X8XeX8X6X9XeXeX0X9XeXeXpXdXdXdXyXwXeXuXeXuXdXeXdXpXsX0XiX4X[.D = ; q.{.3X@Xe.7   m ",
"7.).>XoX9X;X,.# O M 4XpX2XgXuXuXeXuXtX:XrXtXyXwX5X5XyXrXuXuXuXuXeX0XeXuX8X6XeXeXeXeXeXeX6X7XeXpXpXdXdXdXdXpXeXeXuXeXpXeXpXqXpX+XsX<X4Xb.# # F Y.4X|.e.q + s ",
"7.OX;X#XeXoXJ # # %.4XpXeXdXdXuXeXuXuXtX9XeXwXtXtXwXeXeXuXeXeXpXeX6X7XqX7XpX9X0X6XpXeXiXeXpXqXeXeXeXpXdXdXdXeXeXpXeXeXeX0XeXiXqXiX4XiX].m # y w.@X@Xf.a @ m ",
"7.OX=X-XtXi.8 + 8 n.qXgXsXwX5X8X7X7X*X&X~. X#X$X$X3X$XoX#X XoX<X.XU.'.U.{.4XpXdXdXeX6XqX7X2X2X2X6X6XqX6X6X0X6X-X#X#X#X#X#X6X#X,X<XqXsXqX=.O : ] |.1XN.D + S ",
"7.=X;X-X7X| + = M <XsXsXfXK.*.*.| ..} } ) I T Y Y Y F Y N F Y ( F Z Z C K 3.#XqX7XI.5.*.%.| / ) / / I ) I I M M h b b b M b ) | 5.oXpXiXm.> # c V.1XC.H   Z ",
"w.;X;XeXY.y @ t -.sXaXyXaX:.< & , , , % & % : = = * = = , : 6 4 ; = +   1 D H.0X2X5.y - * : * * * > > , > > * > - - - - % % % < P `.6X7X+XI = 4 e.1XC.K o d ",
"7.;X7X9X;.> # p r.sXaXgXgXK.} } _ ' | R ) ) N N m N B Y R _ 5.,. .[ c @ @ c m.iXiX5., O , x n n N M B Y Y Y } _ | | | } _ R } } ;.#XeX7XwXr.4 # [ |.|.K # s ",
"0.$X$X3XB * + n ,XsXaXhXhXwX5X X@X$X$X+XoX$X#X#X#X#X#X6X6X6X0X2X,X'.q.8 + 4 u.iXqX&.* , ` u.C.[.{.|.+X+X$X$X$X+X$X$X$X$X$XoX7X#X#XpXeXeXeXJ.p + j C.|.H 2 s ",
"e.OX#X#Xw # 8 / iXsXaXgXhXdXpXqX4XqX7X7X-X9XeXeXeXtXeXeXwX0XeXeXsXsX].M % = u.iXqX| : n M.iX4X4X7X7X4XqX4X7XqX4X3X3X4X3X7X7XeX7X9X7X6XpXuX6XD + 7 N.|.H 2 t ",
"7.;XOXl.# + & r.0XdXdXdXhXfXuXaXwXpXdXpXwXqXsXaXpXaXpXpXuXdXaXpXpXsX].I O * b.qXsX-.- B ,X4XiXiXsXiXiXaXsXsXsXsXsXsXpXpXaX0XsXeX5XwXyXyXwX5X[ 1 4 e.|.{ O m ",
"3.$X$XM.= $ < n.eXgXgX6X5X,X0X5X6X6X0X0X0X0XqX0X0X0X,X,X,X,X X+X X].b.c # 8 H.iX4X} * x q.b.].].].,X,X,XK.].`.].`.`. X,X,X,X,X,X,X0XeXdXuX,XL 1 3 1.}.[ O d ",
"#.$X$XL.: @ w I.qXqX3Xr.} ) I P B P Y Y F / F / B B Y B B N N F M D c ; @ p H.pX+XP O , n n x z z b b b b b z z t y c n M M ) ` ` *.I.qXsX+XL @ ; 1.[.[ # m ",
"O.OX;XY.6 = 6 L.7X3XY.( - % , - # * * * # = = - = , : , - = # ; ; 2 5     p p.pX'.B % % * * # % X % > & & & # # # # # # = # * O o w 5.qXqX'.K @ + $.[.[ # m ",
"+.$X7X'.6 # , P.7X7X7X6.Y U } U Y Y F S S U G G T ' ' ! ! '  .<.>.>.[ 5 @ q A.dXoXN > w M / F B B P ) ) P P N Z F T Q R ! R R U h R Z.9X9X.XJ   + $.C.[ : F ",
"o.OX7X+X8 # w J.7XeXuX;X X#X9X7X-X7X$X#XoX$X@X$X3X$X4X3X3X$X3X3X3X1XN.m @ q Y.uXoXB * B u.'.<X<X<X#X2X3X,X#X(.+X$X$X7X7X7X;XY.(.(.oX=X9X;XoXJ +   $.B.$.2 ( ",
"o.@XeX#Xr O < n.eXeXuXdXfXuXfXtXuXtXuXeX0XeX7XpXpXqXeX9X9X6XeXeXeXpX'.B # t ~.eXoXP % I '.sX4XiXiXqXpXeXeXqXsXsXpXsXsXsXiXaXaXdXsXsXdXpX0X,XJ + @ $.N.[ 4 _ ",
"o.OX7X2Xz # & r.eXdXuXuXfX5XfXuXuXdXdXdXuXdXpXpXdXpXpXdXuXpXeXqXqXpX].M % z #XpX3X/ % Y  XiXiXiXiXiXiXqXpXiXhXgXsXhXsXhXsXsXsXaXaXaXdXgXpX0XJ + ; >.B.[ : ' ",
"+..XeXoXr # & :.dXfXaXgXgXwXdXfXhXfXgXpXaXaXsXiXqXiXaXpXaXeX0XaXaXiXn.z X x +XqXqX%.% x B.4X4X4X4X4X4XiXqX0XaXeXwXwX0XeXuXuXeXuXeX5X8XuXeX Xv ; @ $.C.[ # T ",
"3.(.7X'.t * X P q.n.n.H.K.H.K.K.K.K.K.H.n.n.-.5.=.5.q.r.r.q.q.n.r.q.$.* O V  XqXaXq.* = V ` ` ` $.-.-.-.*.%.*.| *.*.;.;.;.;.;.5.q.5.q.i.r.5.q @ 2 >.[.[ # J ",
"7.OX9XY.r + o # > z y t y M b x y t y t t 6 9 4 4 4 8 8 8 6 9 t 8 8 ;   @ $. XqXsXb.z O # o % # # * % % % O # # # = : : : : = * ; 4 4 7 7 : ; + 9 e.1XJ # F ",
"3.$X9XY.n : 7 4 : 4 : # # 6 : # # # : 2 3 ; 1 1 $ @ @ = @ = = 3 @ @ +   q 1.2X0XqXH./ 8 , : = : , , = * O O 4 3 ; $ @ @ @ $ 1 $ @ 1 @ @ @ 5 ; 5 [ N.[.D o J ",
"O.!.=X$Xw.,.o.<.3.>.] ]  .6. . . ...>.3.<.>.] K K H ( ] o.o.o.>.>.$.] K >.N.;X9X7XY.r.,.;.2.-.=.=.=.&.| | _ S Z d u 7 7 u a d 0 5 5 0 0 j H ] 3.V.}.e.7 o J ",
"Q E.=XtX7X3X}.3X7X$X.X}.$X4X$X@X@X@X$X1X$X@X@X|.}.}.XX@X@X3X@X@X$X3X}.[.|.4X>X9X9X;X$X$X$X3X3X@X3X1X@X$XOX+XXX!.U.x.l.x.x.T.x.f.7.8.a.h.V.W.@X1X1XN.J # O { ",
"i 7.S.~.XXXX;X;X-X;X;X;X=X9X>X-X>X9X;X;XOXOX7X;X7X;X;X;X=X>XOXoX;X;X#X$X4X4X*X=X=X%X=X9X7X;X$X3X3X;X;X;X;X;X7X;X$X$XOXoXXX}.;X$X!.Q.).OXOX@X|.}.N.' 6 + , 2.",
"2 g h E o.O.6.@.X.6.9.9.9.9.Z.Z.A.A.A.A.Z.y.t.i.A.A.A.A.Z.Z.J.H.A.H.p.H.P.H.~.~.~.Z.P.Y.I.S.S.M.z.p.y.p.y.A.p.p.A.H.p.p.t.9.y.t.w.0.t.y.0.7.3.o.Q 6 + = c q.",
"7 @ @ 5 5 1 5 4 4 4 7 7 9 9 9 p p p p p 9 9 9 q a a p j F d D D v c a C D D [ K G J J D D v c c p c c a c C d v d a p p 9 4 q 7 7 9 9 7 4 7 ; 5 : # # e  .m."
};
