/* XPM */
static char *_f8dbd33f2ab4d40a047ca7be92aa7ae[] = {
/* columns rows colors chars-per-pixel */
"80 68 223 2 ",
"   c #5E1705",
".  c #6F0706",
"X  c #6C0D06",
"o  c #730C07",
"O  c #780D0A",
"+  c #651406",
"@  c #6C1406",
"#  c #651906",
"$  c #6B1C06",
"%  c #741407",
"&  c #781107",
"*  c #721907",
"=  c #7C1508",
"-  c #761B08",
";  c #7C1C09",
":  c #7C1210",
">  c #6A2607",
",  c #742308",
"<  c #712408",
"1  c #7C2209",
"2  c #772E0D",
"3  c #7C2B0A",
"4  c #79360C",
"5  c #7C3A12",
"6  c #7E4116",
"7  c #821609",
"8  c #821C0A",
"9  c #8B1B0B",
"0  c #911F0D",
"q  c #871E16",
"w  c #85220A",
"e  c #8A250C",
"r  c #832B0B",
"t  c #8D2A0C",
"y  c #91240D",
"u  c #922D0D",
"i  c #9B2C0F",
"p  c #84330D",
"a  c #8E3A0E",
"s  c #94320E",
"d  c #9A340F",
"f  c #95380F",
"g  c #9B390F",
"h  c #8B2413",
"j  c #8B2A12",
"k  c #8C2618",
"l  c #932D12",
"z  c #9C2E13",
"x  c #952E1B",
"c  c #8B3413",
"v  c #883813",
"b  c #953113",
"n  c #9B3414",
"m  c #9D3A12",
"M  c #963219",
"N  c #9C351B",
"B  c #9E391B",
"V  c #A23515",
"C  c #A23C13",
"Z  c #A93D16",
"A  c #A23B1B",
"S  c #A93C1C",
"D  c #B03F1A",
"F  c #972E25",
"G  c #9C3522",
"H  c #A43C23",
"J  c #A73C26",
"K  c #834317",
"L  c #984515",
"P  c #9B511B",
"I  c #A44314",
"U  c #AB4316",
"Y  c #A64915",
"T  c #A94A15",
"R  c #A5421B",
"E  c #AB441B",
"W  c #AD4A1B",
"Q  c #B24B15",
"!  c #B1441B",
"~  c #B24B1D",
"^  c #BA4D1C",
"/  c #B5531D",
"(  c #BB541D",
")  c #BC591E",
"_  c #944E25",
"`  c #A74727",
"'  c #AC4423",
"]  c #AE4924",
"[  c #AB4329",
"{  c #B24422",
"}  c #B34C24",
"|  c #BB4D23",
" . c #B24529",
".. c #B34B2B",
"X. c #BA4D2A",
"o. c #A95B26",
"O. c #B55223",
"+. c #BB5423",
"@. c #B75820",
"#. c #BD5A22",
"$. c #B6512B",
"%. c #BB542C",
"&. c #BD592B",
"*. c #AA4231",
"=. c #B64B33",
"-. c #BC5433",
";. c #BE5934",
":. c #BD563A",
">. c #AE6830",
",. c #C1571E",
"<. c #C15D1E",
"1. c #C3611E",
"2. c #C34E2A",
"3. c #C35524",
"4. c #C45C23",
"5. c #CA5B26",
"6. c #C3552B",
"7. c #C85628",
"8. c #C35C2B",
"9. c #CB5C2B",
"0. c #D05E2C",
"q. c #C25433",
"w. c #C35C33",
"e. c #CB5C33",
"r. c #C45D3B",
"t. c #CB5E39",
"y. c #C56224",
"u. c #CB6425",
"i. c #C76823",
"p. c #CC6A25",
"a. c #C5622B",
"s. c #CB642B",
"d. c #CD692C",
"f. c #D2642C",
"g. c #D8662D",
"h. c #D36C2C",
"j. c #CE722E",
"k. c #D4722D",
"l. c #D9722C",
"z. c #D6792D",
"x. c #DB7B2E",
"c. c #C66233",
"v. c #CB6533",
"b. c #CD6B33",
"n. c #C66239",
"m. c #CC653C",
"M. c #CD6A3B",
"N. c #D36432",
"B. c #D36D33",
"V. c #DB6D35",
"C. c #D2653C",
"Z. c #D36D3B",
"A. c #D96B39",
"S. c #D57333",
"D. c #DB7534",
"F. c #D57834",
"G. c #DC7A35",
"H. c #D5733B",
"J. c #DB753B",
"K. c #DD7A3B",
"L. c #E07D2F",
"P. c #E07734",
"I. c #E17B35",
"U. c #E1753B",
"Y. c #E27C3B",
"T. c #E87E3F",
"R. c #B95041",
"E. c #BB7A43",
"W. c #C75D47",
"Q. c #CB6442",
"!. c #CF6A43",
"~. c #CC6649",
"^. c #D36D43",
"/. c #D56944",
"(. c #D36C4B",
"). c #D96E4C",
"_. c #C37D46",
"`. c #D67243",
"'. c #DA7544",
"]. c #DD7A43",
"[. c #D6724A",
"{. c #DC764B",
"}. c #DE7A4B",
"|. c #CC6359",
" X c #D66C52",
".X c #DA7352",
"XX c #DC7754",
"oX c #E17D43",
"OX c #E67A46",
"+X c #E17D4B",
"@X c #E27D53",
"#X c #E37358",
"$X c #E37C5C",
"%X c #E17862",
"&X c #BF823D",
"*X c #DF8037",
"=X c #E0802E",
"-X c #E28336",
";X c #E4823D",
":X c #E8843C",
">X c #EB8C3D",
",X c #C8874A",
"<X c #CF944F",
"1X c #CA8954",
"2X c #DE9E56",
"3X c #D89759",
"4X c #E58243",
"5X c #EA8543",
"6X c #EB8A43",
"7X c #E5824B",
"8X c #E9844C",
"9X c #ED8A4A",
"0X c #E68253",
"qX c #E98552",
"wX c #ED8A55",
"eX c #EA845A",
"rX c #ED9152",
"tX c #DBA259",
"yX c #E5A55D",
"uX c #DD9865",
"iX c #EB8C69",
"pX c #E9A863",
"aX c #E6AC74",
/* pixels */
"E.2   w R R ' O./ / @.#.a.#.#.#.@.@.#.#.@.@.( @.@.@./ / / T I I I Y g I Q Y W g g R W E I / / I Y T T T T Y Y Y T T T T T Y Y I I T T T T T Y I Y L v 3 + > >.aX",
"5 > 1 B X.q.w.e.d.d.h.h.j.d.d.j.h.h.S.B.d.d.d.h.h.h.k.p.u.u.<.) ( <.( y.u.y.) C t C c.b./ ) u.1.1.1.1.1.1.<.1.u.1.1.1.1.1.1.1.1.) <.<.1.y.<.1.) O...` ` 3 + _ uX",
"< 1 t V D 6.C.J.D.D.k.h.h.h.d.k.G.I.I.G.D.F.l.D.D.J.G.I.P.V.h.f.u.u.u.N.N.f.u.d 7 y | ^.v.s.B.k.p.p.p.p.d.d.d.h.u.u.u.u.p.u.i.i.u.d.h.N.h.d.d.u.s.%...` p + p ,X",
"3 ; y D | 8.B.oXI.I.D.V.l.D.D.K.T.:XOXT.;XI.Y.Y.Y.U.T.T.Y.U.U.D.V.V.N.D.V.J.V.U = 7 z w.A.J.J.V.l.l.h.k.h.k.l.B.l.l.l.V.k.g.l.h.k.S.V.D.V.D.V.B.V.6.{ ' l X 1 _.",
"1 % 0 { 2.3.d.S.OXY.OXY.Y.Y.OX4X4X4XOX4XOX5X4XoXT.T.OX:XOXT.I.U.Y.U.U.T.V.Y.OXQ 7 7 t Z v.OXK.D.D.D.x.x.D.D.D.D.D.D.D.P.D.D.D.G.D.D.D.D.D.D.V.D.V.g.2. .A o 3 _.",
"1 w V { | 5.F.x.J.].K.Y.oXOXK.OX4XOXOX5X8X8X8XoX5X5X5X5X5XT.T.I.J.U.Y.OXJ.U.D.V 7 l y i 6.`.OXoXG.D.G.G.D.l.D.G.D.P.x.P.D.P.D.P.K.D.D.D.J.D.K.D.g.g.7.{ N o r <X",
"+ 1 s Y ) u.h.l.Y.K.K.Y.Y.K.Y.;X;X4X5X5X6X5X5X5X5X4X5X6X>X>X>X=Xx.I.4X].].@Xm.l w &.} w B ^.'.].K.K.G.G.D.x.G.F.L.P.I.L.P.P.D.D.I.U.I.I.I.U.P.U.V.g.5.] b % r uX",
"+ 1 a T #.s.h.l.G.D.D.G.G.G.Y.;X;X;X:X:X5X6X6X5X5X5X5X6X6X>X:X=X=X:X4XK.].@Xq.8 w v.c.t s w.'.].K.G.x.x.x.D.G.G.L.P.I.I.I.Y.I.Y.I.K.U.U.P.K.J.U.V.g.8.} n % p uX",
"+ 1 s T <.u.p.l.D.k.k.S.D.D.G.:X;X;X;X:X5X4X6X6X6X4X4X6X>X>X-X-Xx.;X*XH.+X[.R = e '.'.R e R ].].K.K.x.G.D.F.F.K.P.P.I.I.I.Y.Y.I.P.U.P.J.U.P.U.K.l.d.5.! B - v uX",
"+ 1 s T 3.u.g.l.F.h.h.k.F.D.G.;XY.Y.I.Y.;X5X5X6X6X4X>X>X>X>X-X*Xx.K.K.].+X&.t = C '.'.;.e e H.H.F.G.G.G.x.G.G.G.x.P.I.I.Y.P.P.P.D.D.D.P.D.U.P.U.l.d.8.] N ; c uX",
"+ - a T ,.u.p.l.k.k.S.D.G.D.D.G.D.G.G.K.K.;X:X:X;X*X;X-X-X-X*Xx.G.K.H.7X`.B = t &.Z.v.!.n w w.H.K.F.x.x.x.G.G.G.D.D.G.J.I.J.I.J.D.D.D.J.G.K.D.G.V.f.8.] n - 3 uX",
"+ , s T 4.d.h.h.S.k.D.D.G.D.S.S.F.D.D.G.G.K.Y.;X*XG.*XG.=X*XG.G.*XK.].}.%.w 7 H Z.&.%.`.} w W H.H.G.F.F.G.G.F.K.V.V.D.K.Y.Y.T.Y.J.P.J.J.J.I.I.J.l.f.5.] N - 1 1X",
"+ 1 f Q 4.d.h.l.D.S.D.D.G.D.k.D.l.D.D.G.K.I.I.K.z.x.G.G.G.G.G.K.].].{.c.s 8 A r.H.W O.{.;.w g H.H.G.F.G.F.G.G.G.J.J.J.U.J.J.J.D.J.Y.J.I.G.J.D.I.P.d.5. .B * 1 ,X",
"+ 1 a / 8.h.k.l.D.k.k.D.D.S.D.G.F.D.D.G.G.G.K.G.z.G.z.*XK.G.K.].H.].'.} = e ;..XZ.W %.{.w.e u J.K.F.D.F.G.G.K.H.J.].OXJ.J.C.b.h.Y.K.I.J.I.I.G.G.l.f.5.| B - , ,X",
"< * m @.s.V.l.l.F.l.k.S.F.D.G.D.d.D.K.G.G.I.G.F.z.F.F.G.K.4XoXoX'.`.] ; 8 %.{.(.&.g c.}.&.t t Z.].F.F.D.G.F.J.oX'.'.'.Z.+.d g 4.K.J.D.K.D.J.D.P.P.u.8.$.B - - E.",
"* - L ) s.U.D.D.D.S.k.S.k.D.F.D.D.G.G.G.D.K.G.D.*XG.x.K.K.H.].qX`.$.w 8 } Q.!..XW m v.}.O.w s Z.J.S.G.G.K.S.D.].+XC.%.U t ; b 5.OXK.K.D.D.G.D.D.P.d.e.%.H ; 1 E.",
"< 1 I ) p.J.P.Y.G.G.F.D.S.D.D.k.G.Y.Y.G.D.G.K.G.K.G.K.K.].].'.[.$.t = A !.@X^.m.g W M.+X] ; B H.S.H.K.G.F.G.].H.w.' g y & 8 | ].K.K.J.D.G.D.G.G.I.f.v.6.R ; 3 E.",
"< 1 L @.a.K.U.:XY.K.D.G.G.G.D.D.G.;XY.Y.G.G.G.G.G.*XK.F.+X0X!.R t = B m.^.eX{.m m 8.`.{.Z = W H.K.F.G.G.K.].S.a.t b n y w U J.qX].K.K.K.I.G.G.x.D.h.v.&.A ; 3 _.",
"< 1 I @.5.U.I.:X;XY.Y.K.Y.Y.G.G.Y.;X;X;XY.G.D.D.K.*X].4X].n.B 7 7 A r..XXX{.&.r / `.{.m.s w &.'.].].K.].K.S.) g t ' ..t u w.@X'.].K.K.K.G.G.x.D.I.f.e.%.A ; r 1X",
", 1 I @.a.U.I.OX:X;X;X;X;X;XY.Y.;XK.;X:X;XK.D.G.4XG.4X}.&.e = w [ (.Q.m.0X%.t C b.+X].O.t n M.].K.].;X*XB.) g t -..Xr.e n `.eX].].K.K.K.G.G.x.G.P.h.9.| N - r 1X",
"< 1 I #.s.J.I.5X5X;X;X;X:X;X;XK.;XY.;X:X;XG.D.G.K.K.J.&.u % e .. X%X.X!.c.g u &.'.oX`.m w } [.7X].K.K.S./ s f W XX%X..& A @XeX+XK.].G.K.*XG.D.x.P.f.9.} M ; v 1X",
"< , Y #.s.J.Y.OX;X;X;X;X4X;X;XY.;X;XK.;XY.D.G.Y.J.4Xb.t X w =.(.%X(.iX@Xu e &.S.oX'.M.t w c.}.}.K.].G.a.n 1 I 7X%X$XN X ] @X'.'.].K.K.K.*XG.x.x.P.h.s.} b - c 3X",
"  < Y 8.V.U.D.:X6Xx.*X6X4X5X6XF.:Xx.z.x.*X*XG.F.!.!.H . w / y.D.Y.]..X=.8 m F.z.K.}.J o M Z.F.z.K.].w.e e g b.Z.H.`.e o G eXG.D.=XL.G.J.J.K.D.x.J.B.#.! n % a tX",
"> > I 3.N.U.J.:X6X;X;X4X4XK.4X4X>X:X*Xx.k.S.G.Y..X' 8 = W Z.d.F.K.'.r.b b $.S.*XK.v.x = ` H.*X*X*XM.R - s @.Z.@.v.^.l % G @XK.F.x.x.Y.J.].J.x.l.A.S.4.~ n * a tX",
"> > L 3.0.U.U.4X:X;X4X6X9X7XK.*XF.G.-X*XG.G.K.]..Xe . n ^.7XF.S.H.`.n 8 } '.S.*XJ.W - q :.{.G.*XK.O.r % W H.M.I a.^.M o N XX].z.x.x.I.Y.OXJ.G.x.H.S.5.~ s % L 2X",
"> > m +.9.U.I.5XG.F.y.b.4X7X].4XF.K.G.G.K.4X].K.:.% 8 w.].4XS.K.J.} ; e v.7XF.G.J.g o x (.].j.*Xb.n ; t M.rXb.I b.'.B . l [.4Xk.G.x.Y.4XOXY.Y.L.J.h.4./ l * L 2X",
"4 $ f 4.9.U.*X;X;Xp.g t W c.Z.K.].;X*XK.J.K.].`.M & C `.K.G.G.].Z.t = W J.oXK.F.S.c o G [.'.S.K./ w w O.4X7X&.@.].{.` o t Q.7XF.x.-X;X4X4X;XY.I.B.d.4.~ e * P pX",
"5 # s 4.5.J.;X;X7Xb.m % 8 g I C O.b.K.7XoX+X].`.9 ; %.].K.4X].`.;.% w B.K.F.K.J.b.t o G (.}.F.S.u % f !.7X].W c.].}.$.- w $.{.4XY.I.Y.oX;XY.I.I.Z.s.y.W w * >.pX",
"6   f 5.5.V.oXG.4X].c.s 8 s m e w g @.Z.+XwX}.!.= h v.4X*X4X].{.A % g ].*XS.G.H.b.u % l r.}.H.a.w ; ] }.].H.T c.'.7X!.e 8 n Z.+X5XT.Y.;XY.Y.Y.I.J.d.4.W w % o.pX",
"6 # f 5.5.V.*XG.].wX7XO.t ' t.} w w e I M.eX@XQ.7 B '.6X*X4X].XXe = I K.4XS.H.;XH.m % e -.7XH.W w w &.+XK.].W &.}.qX@Xf ; w w.].OX5X5X;X4X;XT.T.U.d.5.! ; % o.pX",
"K > s 3.N.V.D.;X7X7X}.m.t t [.eX'.W e e t ^.eX(.: H oX5X6XK.wX{.t = E 7X;XF.].K.}.W w 8 B }.].s & j n.7XG.K.I $.'.}.0X;.w o A '.+XrX5XI.5X:XK.5XJ.y.#.Y = - >.yX",
"K > c 3.f.V.D.;X7X}.7X`.b t m.eX0X'.v.s % n (..Xh A ].4X;X*X7X`.t o f `.;XJ.].K.qXv.A * 1 &.M.n = b ^.qX;X*Xf L '.'.}.H.A % e ;.+XwX6XI.6X5XI.Y.Z.4.4.U ; ; &.yX",
"K $ s +.9.V.k.;X].7X0X{.R 8 =.0X{.{.wX&.t o H Q.l b +X9X:X8X7X}.B = t Z.qX7XoXJ.}.}.n.p = I $.b & G `.7X*X;XL t ^.'.].7Xc.1 % M m.8X9XI.:X:XY.J.B.5.) I ; - >.yX",
"5 $ p ^ 5.h.D.;XK.+X7X+X' ; R 0X`.%.M.+Xm.; 7 ..n u '.rX4X4X].@X..= & [ [.+X].J.`.0X[.` 8 r d e o G [.4X*X6X@.l c.].7X7X}.` = = ' `.9X;XL.I.T.OXB.a.+.I ; * o.yX",
"4 # s / 7.f.F.K.oXoX+X{.E = Z @X+XO.g '.{.B o B W t %.4X7X].H.7X^.l . l r.{.oX7X].0XXXn.g w ; ; . x [.4X;X>Xc.f W 7X4X`.0X(.N o 7 | 4X>XL.P.Y.J.B.s.) C 8 % P 2X",
"4 # s ^ 7.g.S.*X].oXoXH.B ; ] }.qXC.m w.'.w.; 8 ~ d s H.7XwX7X7XeX' = 7 H -.c.j.M.!.}.0XB.R 8 o . q m.4X>X;XZ.f f Z.4XH.7XeX:.l o t s.6X:XL.J.H.B.u.( Z w @ L 2X",
">   a / 3.N.D.G.K.;X7X^.b w &.'.7XqXO.W {.{.n = m / m ^.qX8XK.b.%.B : O 7 l b m R W &.'.0XM.R j : = ] F.>X*X`.` l @.F.].].@X XR.8 7 I x.:XG.D.Z.b.d.^ I w @ L tX",
"4   s ) 5.V.S.D.K.K.7XH.u t m.^.wXwX#.e '.@X=.w w J.a.}.{.c./ m 8 l k q k x u s e r e R b.[.Q.R.q X s y.:Xx.7X&.r L b.7X].(..X%X[ = w ) L.x.J.`.d.5./ V w @ L 2X",
", $ f ( s.N.B.I.7X`.wXZ.t g Z.].7X4X@.g c.7X'.h : *.iXXX&.u ; w g ~ 8.5.9.B.h.d./ Y t w g a.4X}.[ = = B 7X7X].n.s e -.XX.X}.Z.*Xb.s % l ^.eXH.*XB.s.3.R w X a uX",
"< @ f / s.J.J.T.].+X7X&.e Y '.].oX4X@.s #.+X{.s . J  X*.c e u W ].+X'.].'.8X4XY.8X'.] e w I b.eXW.x = r #.*X7X^.R w ` [.}.}.H.H.H.W e 8 $.@X].F.B.d.#.U w o a yX",
"$ + f ) s.J.J.4X].0XH.m t &.7XH.J.].( u @.{.7XC . F *.8 w n O.'.+X+X+X{.+XoXOXoXwXqX^.] c e T }.$X=.; = L H.7X].w.8 u Q.{.}.'.F.].a.B % l [.7Xj.B.s.y.! j X v uX",
"# % m ) a.V.J.Y.].].} e g b.7XH.S.].) t #.'.}.} : : q - [ m.`.0X{./.t.6.| +.6.c.v.`.0X'.} e u M.$XQ.h ; t Z.].].`.e w ;.[.7X4XK.4XH.$.% - m.7XS.H.s.a.W j % a 2X",
"# * C ) s.B.S.K.{.8.u w } `.7X].H.]./ c &.'.].&.: O . x Q.$XXX@Xm.} u 9 9 t u s ] n.0X7Xc.t 1 m..X(.B w w v.].K.7Xg 1 ] `.}.4X*X].'.t.8 = :.].H.B.f.s.~ l % a 3X",
"# - I ) 5.B.S.Y.{.R = u v.7X].].].].W u b.H.].c.: O & :. XeX{.^.n e = e V ! d e c W H.7XH.n ; :.[.[.] 8 ; &.].4X].O.w N !.}.4X4XK.`.~.x ; X.'.H.Z.d.a.~ l X a 3X",
"# - Y #.c.S.J.;X^.s = I '.7X].].].H.C u H.'.J.a.: : k ~..XXX'.} = e S t.{.@XC.| ; d b.4X].R = :.{.{.$.; 8 ..].;XJ.M.e t M.7X].*XJ.'..XB & ..'.J.V.d.s.! t % p 3X",
"+ - W 5.s.J.K.4XQ.l w O.].7X].J.].v.n u '.'.Z.b.: : j  X[.@Xm.e 7 S /.}.{.].`.v.b A b.F.`.R % :.0X'.;.; w ' F.F.Z.'.w ; M.0XK.K.J.+X$XB o ] ].H.H.d.a.~ t X p 3X",
"# 1 I @.s.H.K.G.$.8 e c.].].].].`.O.e Y `.].S.#.7 = B XX[.}.%.w e c.wX{.C.].'.9.t ] b.K.c.e e :.@X].O.- ; $.K.K.{.'.z 7 v.8Xb.*XJ.`.!.H 7 ' oXOXJ.b.5.R w X r 3X",
"+ 8 I @.5.S.K.F.[ = t Z.4X].].J.`.Y w W ].7Xb.@.; % B XX`.'.O.; 8 8.+Xe.U U ^ Q n &.J.F./ 1 l n.{.m.A = w ;.].;X'.^.l 8 m.+Xb.].V.'.Q.b = ..+XJ.J.d.4.U w X p 3X",
"+ 1 I ( a.S.K.F.H % n '.].J.].H.`.s 8 O.{.].H./ = & B [.`.`./ w t w.qXZ.W V Z Y ..!.H.a.L w N (.XX$.e % l w.].*X}.w.8 w m.{.N.K.b.].X.7 7 -.7XJ.J.d.#.C w X p <X",
"@ w I ) a.S.K.F.J ; N '.J.B.].J.Z.t ; w.+X].F.) 8 & M v.'.].@.t ; U A.+XH.s.5.5.M.'.v.E t t O.[.[.` = - L n.H.K.}.' & y C.'.b.K.S.M.V o y M.7XG.V.a.) V e X p ,X",
"+ 8 I #.a.S.F.F.J ; M Z.H.H.;X'.c.e 8 w.{.K.K.p.h & 8 ] ^.}.M.E 7 s ! t.].+X+X'.M.&.Y t e Y n.`.Q.M % 8 ] b.H.K.).V o i /.{.V.J.J.| 7 & ' ^.OXV.B.4.^ C e % p ,X",
"@ w I 3.a.H.*XF.G : t v.7X;XK.H.t.t ; $.'.J.K.F.F = & l w.`.].c.S d t n { 6.6.+.I c w e m c.].`.[ w = n 8.H.`.'.r.y = J /.{.J.D.D.V = y q.J.D.k.b.4.) C t @ p ,X",
"@ w I @.5.S.K.j.*.h 7 ! F.K.S.H.6.z = ' M.J.G.l.R.k = = ' ;.[.^.w.' t 7 9 y t y t r s ' &.].].c.e = w ..H.J.H.`.S 7 9 q.).).J.B.) t e X.m.Z.D.d.s.4.^ C e % p 1X",
"@ ; C ) 4.b.S.j.|.G & s b.S.a.H.r.V o n M.H.B.l.|.J 8 o M ] M././.m.X.S n d d d I I :.[.`.J.a.s = = M n.].F.M.M.y O x W.)./.V.b.V 8 V m.!.N.k.p.s.+.+.C j % v <X",
"+ 1 M ] &.c.H.J.C.| i 7 V C.}.Q./.S 7 9 :.#X#X X^.| i 7 ; y ! t.t.Z.`.A.d.5.1.y.C.^.^.'.^.q.V 8 9 s | C.{.@X/.A . 0  .Q.#X).q.N y { t.C.C.C.C.C.u.<.W R p + 5 1X",
"+ w M ] &.d.S.J.'.N.! y y S e./.).X.9 9 S ~.#X XZ.^.M.! 9 o = b S } w.C.Z.N.b.N.!.m.t.{ b 9 ; ; A -.).(.).[.=.e 7 D C./.6.! V u ~ e.J.C.v.N.d.s.u.<.W Y c $ v 1X",
"# 1 b ' #.s.N.D.C.'.Z.| d y d ! w.q.A 9 w  ./.#XJ.].].v.] b 7 O = 7 M H J [ [ [ B B M 8 % = b [ :. X.X~.(.W.N o V #.b.#.m d I / j.D.G.h.p.p.i.i.u.4.~ R c $ v 1X",
"$ 1 b ! +.s.N.D.B.A.J.V.8.! d d ~ t.6.V 7 9 ' r.K.J.H.Z.Z.m...y 9 8 7 = 7 7 7 7 = = = 8 b [ :.(.(. X(.Q.;.M 8 s u.y.) Y I Q i.l.p.z.k.i.i.p.p.p.d.5.~ A j $ 5 ,X",
"+ 1 f W +.u.f.g.D.h.s.b.H.b.5.8.3.v.Z.w.d 8 8 u #.b.J.H.`.`.M.&.&.} C s u t s s c s g E &.n.M.M.^.`.b./ c * e a.S.d.<.) y.j.k.p.i.a.i.i.i.p.p.p.0.5.{ A r @ 4 E.",
"+ ; b ! ^ 5.f.g.B.d.d.d.B.B.B.B.b.d.v.C.5.I e 7 w n O.c.C.Z.C./.`.Z.M.s.a.y.1.4.w.v.^.^.`.H.H.M.a.&.g w w d ( H.J.b.j.b.b.h.p.y.a.i.u.u.i.i.p.1.0.7. .A j @ 5 &X",
"+ 1 b R | 5.f.g.u.u.h.h.d.d.d.5.N.d.N.B.A.v.^ d 7 7 8 n { q.q.r.t.t.C.C.S.B.b.d.W.!.^./.m.n.w.&.L u w e C c.H.v.B.B.h.b.v.a.d.b.f.d.s.s.s.u.y.u.e.7. .V e $ p &X",
"+ w M R | 3.0.N.g.h.g.u.u.g.l.g.f.V.A.f.f.N.0.3.S y 7 7 7 9 z  ...2.q.e.t.&.6.6.-.=.[  . .H z 9 w 8 n 6.c.C.`.Z.v.v.B.N.s.5.a.s.s.u.s.s.s.s.d.d.e.2.{ N r + 3 >.",
"$ ; l N  .e.2.0.g.g.g.g.h.g.f.f.f.f.f.9.9.0.f.N.e.| D i 0 7 7 7 0 9 7 0 0 0 9 y 9 9 9 9 9 9 i V { X.t.C.C.C.C.Z.d.u.u.5.u.1.4.,.<.5.5.4.4.u.u.5.2.2.S x 4 > 6 &X",
"$ - c B ! %.2.0.5.1.5.5.5.0.9.0.5.5.7.7.5.3.3.7.5.5.5.2.{ D Z V 0 9 9 0 9 9 9 9 9 0 y i V ! X.e.6.e.N.C.N.e.9.9.5.5.<.3.3.3.,.( <.,.<.<.u.5.3.7.=.J V b > > P <X",
"2 + c G N R [ ..^ ^ ^ ^ ^ ^ ^ ^ 3.3.3.2.^ 3.^ ^ ^ ^ 3.3.3.| ~ ! ! Z V V Z V V Z V Z ! ~ +.6.s.v.| 4.4.4.+.^ ^ ( ~ ~ ~ ! } ~ W ! ~ U ! ~ ~ ! U ! H l l c , < >.tX",
"v + 1 c t n A A U Z Z Z Z ! U U Z Z Z Z Z Z Z Z V V C Z U R S Z W ! ! U ! U ! U U W ! ! E E ! E U U E T I C I U C B n C C A m B Z n m B A n b d M w w r < 5 >.<X",
"_ # $ , 1 t u t d s u u i s s s s u t t u u u s h h h h h j l t e t u u u u s s M s b u s b s u n n f l t e e e t r r e j j j j j j j j r e w ; k ; - $ $ L &X<X",
"1X_ 2 $ + 1 1 ; r 1 w w w 1 w ; 1 1 8 8 1 1 8 8 % % % - ; ; % % * 1 1 w w r r 1 1 1 1 1 1 1 r r 1 1 ; - - - @ @ * * * * * - * * @ * $ % * - * @ X % , 3 P &XtX<X"
};
