/* XPM */
static char *debd33567c664710db956e9b2c9b0668[] = {
/* columns rows colors chars-per-pixel */
"81 73 239 2 ",
"   c #18371E",
".  c #0C392E",
"X  c #163C2B",
"o  c #24451D",
"O  c #0B4436",
"+  c #164438",
"@  c #2B4D35",
"#  c #536F3C",
"$  c #053B49",
"%  c #0E3650",
"&  c #063C55",
"*  c #053B6A",
"=  c #083B73",
"-  c #123B74",
";  c #07444B",
":  c #174E47",
">  c #054354",
",  c #0A4957",
"<  c #06445B",
"1  c #064B5B",
"2  c #144958",
"3  c #09545A",
"4  c #16545C",
"5  c #275551",
"6  c #355C59",
"7  c #2E6A54",
"8  c #064463",
"9  c #094A65",
"0  c #06446D",
"q  c #074C6D",
"w  c #095668",
"e  c #0A526D",
"r  c #165866",
"t  c #064473",
"y  c #074B73",
"u  c #094A79",
"i  c #144973",
"p  c #095374",
"a  c #0B5C73",
"s  c #09547B",
"d  c #0A5B7C",
"f  c #165978",
"g  c #275C6F",
"h  c #16636A",
"j  c #0C6279",
"k  c #186777",
"l  c #126970",
"z  c #2F6A6E",
"x  c #276776",
"c  c #27757A",
"v  c #4D6F4C",
"b  c #50746C",
"n  c #6A7A61",
"m  c #81691D",
"M  c #8A7225",
"N  c #718652",
"B  c #728D72",
"V  c #9C8332",
"C  c #A78E3B",
"Z  c #B99E46",
"A  c #889C72",
"S  c #A1A464",
"D  c #CDAF53",
"F  c #D6BA61",
"G  c #D2C474",
"H  c #E6CC71",
"J  c #084984",
"K  c #0A5482",
"L  c #0B5C83",
"P  c #0B5B8A",
"I  c #155A85",
"U  c #0C5A94",
"Y  c #165691",
"T  c #23598A",
"R  c #0D6488",
"E  c #166789",
"W  c #1A7389",
"Q  c #0E6992",
"!  c #176A96",
"~  c #197799",
"^  c #256B87",
"/  c #36678A",
"(  c #287788",
")  c #367A89",
"_  c #256897",
"`  c #257799",
"'  c #357C94",
"]  c #176DA9",
"[  c #1C7AA5",
"{  c #2779A3",
"}  c #2D7BAC",
"|  c #1A8392",
" . c #39858A",
".. c #2A859A",
"X. c #318F95",
"o. c #368899",
"O. c #1C8EB2",
"+. c #2786A9",
"@. c #3789A6",
"#. c #2994AA",
"$. c #3A95A6",
"%. c #2889B5",
"&. c #368BB4",
"*. c #2896B8",
"=. c #3897BA",
"-. c #1CA2BA",
";. c #3AA6B3",
":. c #468995",
">. c #4D8C90",
",. c #46949A",
"<. c #779785",
"1. c #4B8FAE",
"2. c #4698A8",
"3. c #579AA9",
"4. c #479ABB",
"5. c #5DA1A5",
"6. c #48A5B9",
"7. c #57A6B6",
"8. c #52ADB3",
"9. c #68AAB9",
"0. c #6DB1B6",
"q. c #1E9EC5",
"w. c #2A96C7",
"e. c #2E93CE",
"r. c #379AC5",
"t. c #26A8C7",
"y. c #39A5C9",
"u. c #2DB3CC",
"i. c #2BA9D7",
"p. c #39A8D6",
"a. c #2AB6DB",
"s. c #37B5DC",
"d. c #2FAAE7",
"f. c #36ACE5",
"g. c #2AB9E8",
"h. c #37B9E7",
"j. c #2BBBF4",
"k. c #37BCF5",
"l. c #479CC6",
"z. c #529CCA",
"x. c #48A7C9",
"c. c #56A9C5",
"v. c #49B5CA",
"b. c #57B5CA",
"n. c #48AAD6",
"m. c #54ABD3",
"M. c #4AB6D9",
"N. c #55B7D9",
"B. c #66B7C7",
"V. c #75B9C7",
"C. c #70B4CE",
"Z. c #67BBD6",
"A. c #46BAE5",
"S. c #4AB0ED",
"D. c #57B9E5",
"F. c #67BCE6",
"G. c #3ADADF",
"H. c #39C4E8",
"J. c #30C8EC",
"K. c #36C3F6",
"L. c #52CAD1",
"P. c #58C7DA",
"I. c #68C5D8",
"U. c #70CCD1",
"Y. c #77C8D8",
"T. c #47C7E7",
"R. c #59C7E8",
"E. c #4AD6EB",
"W. c #59D6EB",
"Q. c #47C9F3",
"!. c #57CAF2",
"~. c #4ADAF7",
"^. c #58D8F6",
"/. c #65C8E9",
"(. c #77CBE7",
"). c #65D7EA",
"_. c #78D7EA",
"`. c #67C9F4",
"'. c #75CEF3",
"]. c #68D8F6",
"[. c #77D9F8",
"{. c #51F0EE",
"}. c #4BE6F8",
"|. c #59E7FA",
" X c #59F5FB",
".X c #71E9ED",
"XX c #68E6F9",
"oX c #78E6F9",
"OX c #73ECFC",
"+X c #69F7FD",
"@X c #78F8FD",
"#X c #96AA90",
"$X c #91BCB7",
"%X c #F3DC84",
"&X c #E9DE93",
"*X c #EFDE94",
"=X c #85CAD6",
"-X c #8DD3D9",
";X c #8AE5DE",
":X c #86D8E7",
">X c #97DBE4",
",X c #87DBF7",
"<X c #91D8F0",
"1X c #A2DDEC",
"2X c #89E5EA",
"3X c #96E6EB",
"4X c #86F8EE",
"5X c #96F5EC",
"6X c #87E7F9",
"7X c #8BEBFC",
"8X c #98EAF6",
"9X c #93ECFC",
"0X c #85F7F9",
"qX c #8CF4FC",
"wX c #8CFCFD",
"eX c #9CF3F3",
"rX c #98F8F4",
"tX c #94F3FD",
"yX c #9BF4FD",
"uX c #94FCFD",
"iX c #9CFBFD",
"pX c #ADF0EE",
"aX c #A6EBF6",
"sX c #A3F4F4",
"dX c #ACF3F3",
"fX c #A4FBF4",
"gX c #ABFCF5",
"hX c #A4F5FC",
"jX c #ACF4FC",
"kX c #A3FCFD",
"lX c #ACFCFD",
"zX c #B9F7F6",
"xX c #B3F5FD",
"cX c #B3FDFE",
"vX c #BBFDFD",
"bX c #C6FCF4",
"nX c #CBFBF0",
"mX c #C4FDFD",
"MX c #CAFFFD",
/* pixels */
"%XH *XH S N N v 7 # # # # # # # # 7 @ @ @ @ + X @ @ @ : @ + + X @ + : : : @ 5 5 5 : @ : + + + + + . . + + + % O + O + O + + O . . . . . .   X X + @ @ @ @ @ o # n ",
"%X*XG N o @ 7 7 7 7 7 7 7 7 7 7 7  . .)  . .) ' ) ' ' ) ) ^ / ( ' o.o.@.@.2.2.2.$.2.4.7.6.7.6.7.c.c.4.@.o...o.o...o...X...o.@.X.$.@. .W k k h h 4 r c z z g 2 % - ",
"&X&XN o 7 5.B.P.{.L.U.U.0.U.U.U.U.P.P.I.P./.).`.`.`.`.`./.R./.`.[.[.[.[.[.[.`.`.`./.`.`.'.`.'.[.6XoX6X[.].].).P.R.].W.W.).).W.W.XX[.).P.N.N.v.v.v.b.(._._.:XB.) 2 ",
"H G @ . >..X^.~.{.{.{.W.{..X{.{.XX XXX).{.XXXX|.^.^.|.].|.^.^.E.^.`./.m.x.=.%.{ ~ ` +.+.%.&.l.m.Z.T.W.XXXXOXOX+XOXOXOXXXXXXXXX+XOX X|.|.|.|.|.XXXX).oX@X0XqX_.$.% ",
"&X#Xo : 8.).}.}.~.|.~.~.{.|.|.^.{.{.{.{.E.}.|.|.|.}.|.|.~.J.u.-.-.~ R L K K s s L d s a s s d d L j W | O.-.v.W.+X@X@X@X@X@X+X@X@X+X+X X+X X X+X@X@X@X@X@XwXwXL.l ",
"%X#X@ f y.{.G.G.}.~.^.E.E.{.{.G.{.{.{. X{.W.@X0X].[.F.l.} E s y u s K L Q R R R W ` Q E W ` W j a R p y e a p W o.B.I.2XiXuXuXrX6XwX0X0X4X4X@X4X@X4X4X4XwXwX0X_.a ",
"%X#X@ r y.}.G.}.}.|.|.E.G. X{.{.{.+X+X+X.XW.OXOX`.&.~ I u u s I T &.&.=.m.D././././._.oX_._._.(.I.4.$.@.` j e 9 9 a W 2.U.6XiXyXkXwXwXwX@X4X4XwX4X4X4XwXuXuXtX2Xa ",
"%XA o 9 *.E.}.}.}.|.~.G.}. X X{. X@X@X@X@X@X).=.f L s q y L _ } &.r.r.x.m./.'.6XqXiXtXtXuXiXkXkXtXyX9X6X_.I.6.o.( > w w a $.I.:XtXkXuXuXuXrX4XrX5XrXrXuXiXiXkX7Xk ",
"%XA X 9 #.~.}. X}.~.~.G.}. X X X+XOXwX@XI.x.{ a q y y y y p s s d K R R Q W +.x.I.7XqXuXiXyXiXiXeXtXtXuXyXyXtX2X(.8.^ < 9 e e o.I.yXhXiXiXiXiXiXrXiXrXkXkXlXhX8Xk ",
"%XA X 9 &.~.|.}.}.~.K.G.}.}.{.+XOXyX9XZ...a & * s y I _ { { ' ....[ ~ ! L a p j j X.I.iXkXfXkXkXfXrXfXfXiXiXkXiX9X9XY.z.` < & p I 2.:XhXyX8XkXlXeXlXlXlXlXlXcXeXh ",
"%XA X 9 r.^.|.|.}.~.~.}.|. X+X0X0X,X7.E 8 0 p T ^ 4.C.(.,X7X7X6X7X[.'.F.N.6.$.W 3 3 l 2.3XcXkXfXlXrXrX5X5XrXrXiXkXlXjXhX(.' f 0 & & ' =XcXcXhXsXlXcXlXcXlXcXcX1Xr ",
"%XA X 9 r.XX|. X}.}.}.}. X XOXoXI.o.f 8 9 f :.Y.aXaXjXcXgXhXkXtX9XtXqXqXtXuXqX_.b.c 3 3 2.;XsXdXcXrX5XfXkXrX5X5XkXhX9X8XvX<X_ & I & < ) -XxXaX3XcXgXgXcXjXlXcXaXr ",
"H B X r l.OX|.|.}.}.}. X}.^.).v.^ a < k 1.Y.<XjXaXxXjXhXeXhXkXkXeXqXuXuXuXiXiXuX4XB.,.3 ;  .-XcXeXkXfX5X;X8.X.c c 7.8XaXaXvXC.i f / e & k 9.hXcXsXlXjXlXhXcXcXsXh ",
"H B . f n.XXXX|.~.~.~.}.+XE.=.E 9 1 ..B.8XhXlXlXcXlXcXlXsX5XfXeX5X5XrXfXiXiXiXrXrXiX:X7.3 ; ( C.zXkX2XX.c 3 l l h k h 7.aXvXaX) 9 3.2.< r r 2.jXaXlXhXlXjXhXlXeXh ",
"H B . f D.[.|.|.~.~.|.|.E.O.R e q X.I.iXlXkXlXlXlXdXjXgXgXgXgXgXfXkXfX5XfXfXiXiXrXeXyXyX8.x 8 k Y.B. .l 2.U.:X2XY.B. .l :.aXMX9.4 ' :Xo.& , c 2.3XkXlXfXfXiXiX5Xh ",
"H B . e !.XX|.~.~.~.^.G.#.R q E $.I.4XiXuX2XrXkXgXgXgXsXsXsXfXfXgX5X5X5XrXfXfXrXrXkXyXkXkXY.^ $ r w w B.8XkXiXgXiXkX;X .3 Y.vX1X .j Y.:Xo.> > l 2.8XkXtXuXiXtXrXc ",
"H B . s `.^.|.^.^.^.A.#.R R ` z.,XqXwXuXqXuXkXlXfXgXgXgXgXgXfXfXgXgXkXfXfXeXfXkXkXkX8XyXlXjXB.f < w 9.cXcXyX8XlXkXkXcXU.h ,.5XgXB.h X.kXyX( 3 w l 8.uXuXiXiXqXwX| ",
"H A + f !.|. X|.|.!.e.L p #.D.[.8X7X7XqXkXlXkXeXsXsXsXgXcXcXfXfXfXeXfXlXgXkXrXfXkXcXlX8X8XjXaX7.1 r <XlXhXkXkXY.8._.yX5X .w >XcX=Xl $.iXkXY.o.1 9 c I.tXuXwX0XwXX.",
"F B + k !.XX X XXXy.] s ~ F.,X,X,X_._.2X9X8X2X8XcXgXcXlXkXsXhXkXkXlXlX3XY.B.B.B.U.3XyXeXhXlXvX=X1 ; =XaXcXcX_.l l .XiXkX,.3 _.gX2Xa 2.8XqXiX(.| w 1 ;.2XqX0X0XwX;.",
"H B X E !.+X X|.T.[ K ^ l.(.F.m.l.` ` ( ` ( ) :.7.=X<XhXhXkXlXkXyX:Xc.( w 3 w a a  .7.3XvXsXsX3X .$ :.aXgXrX0.3 ,.2X5X_.X.k _.fXY.h X.7XyXhXyXY.W w j b.oXoX0XwXL.",
"F B . W !.+X XE.t.P u _ m.l.` L p p q w w w 1 1 1 3 :.Y.8XlXgX2XZ.^ k k @.B.B.,.c w 3  .3XsXgXcX0.4 2 3XaXlXB.; X.8.8.| w X.7XkXv.h $.8X9XtXiXtX2.j 1 ;./..X@XwXL.",
"F n + +.H. XXXl.T = J T f d p a k W | $.$.2.o.( r 9 < x 1.1XxXz.f , c B.2XkXkX8X(.$.l 3 ,.jXlXvX5X) 9 7.cXkXY.X.3 h l h W I.kX_.X.a ).@X4XrX@X.XL.j u T `.OX+X@XL.",
"F n + O.T.|.R.@.y u i * q E #.v.P.).[.oXqXiXyX3X-X3.x & 8 :.c.T < >.-XgXfXkXkX9X6X6XI.c 1 8.cXcXdX3.9 ,.8XlXyXY.B.X.$.;.I.uXtX6.w ..OX0X@XwX@X@XXX| u s x.{. X@XL.",
"F v O #.H.E.y.! = = u f { v.].6X7X@X0XqXuXiXkXkXhXaXY.:.< * e q ^ U.cXlX8XlXlXtXiXyXkXU.h  .cXdXxX3.> k V.8XcXkXrX.X6XiXkX6X6.( l v.@X.X.X.X.X@X Xy.d t { s. X@XG.",
"H v % +.s.s.%.d 0 s [ x.).OX@X@X@XwXwX0XqXuXiXkXlXlXlX8X,.3 & 9 7.cXcX3XlXkX:XB.Y.iXyXlX,.h eXzXvX7.& > ^ ,.Y.3XiXtX6X_.B.| a ( x.OXwX@X@X0X@X+XOXP.R t Q t. X@XL.",
"H 6 + +.f.p.[ p s [ x.].OX X XOX.X@X@X0X0XuXuXfXkX5XsXcX-X,.3 3 U.cXgXjXcX7.l c o.yX8XlX,.h aXjXjX3.> f ( l k ( ,.$.( a a j ..N.,X0X0XOX@X@X@X+XOX].~ y j #.{.+XL.",
"H 7 > %.f.r.Q u Q M.^.XXXX X X@X@X@X@X7XuXuXuX5X5XlXeXlXlX-Xk ; 7.pXcXlXsXh ;  .7.8XvXsXc  .xXjXcX' & ' =XB.o.^ ( ( W W ..b./._._.'./.P.).).).W.)./.} s p ~ E.OXL.",
"F 5 ; %.p.w.K s %.!.|.|. X X@X@XOXwXOX.X.X0XuXkXlXkXsXlXgXpX,.; c =XcXgX3Xh w 8.:XeXlX0.3 ,.dXmXpX^ & 3.jXjXhX9X9X_.Y.b.b.c.4.@.` ( E E E W W W ~ &.{ s y j n.7X;.",
"D : ; O.e.] u K n.^.|.|.|. X+XoX_.y.#.| X.;.B._.8XyXcXcXaXcX>Xh ; >.jXjXsXc , ) 0.U.0.c h V.vXvX3.< r :XvXaXjXlXhX8XC.@.E a q e a e 8 p p p p d d y I * 0 y l.,X;.",
"Z : ; O.w.] = ] m.|.|.E.XXOXW.;...j a a a l l W 7.3XcX3XvXxX1X3.$ h >XcXcX=Xc 4 3 r 3 c V.1XMX1Xg , ' aXxXjXjX=X7.o.k w 9 q a E ! T ^ ^ W W R L p K t t t t } _.6.",
"Z O 3 w.e.U J %.R.^.XXXXXXP.+.d p j W ..#.@.( k k 3.8XxXxXxXmX=X2 w -XcXcXpX-X0. .>.5.=XxXvX1X>.$ g =XmXcX:X3.x 1 1 3 k ' 6.Z.(._.Y.(.(././.R.m.m.&.} E q 0 _ /.*.",
"Z O 3 u.%.J J l.`.^.XX].v.| s s ' x./.[._._._.b.$.k C.xXjXjXmX1Xr > 9.xXzXcXvXcXdX-XdXMXMX-X) $ 9 C.mXaX9.) ; & r  .2.B.Y.9XyXiXyXyX9X7X0XOXXX[.[.'.P.#.p 0 ` D.O.",
"Z O 3 p.} t Y /.].|.XX/.` y K &.:X[.iXeX9XyXlXkX<X .' 3XxXxXvX1Xg $ ) =XpXpXzXdXzXMXzX>X0.b % g =XxX1X:.% > 4 >.V.-X8XjXhXkXkXkXiXiXuX0X@X@X+XOX[.].XXy.j y ~ A.O.",
"Z O 2 &.] u { `.].].XXN.j y &.F.9XoXuXqX7XtXqXiX9XZ.h =XvXxXxXaXr $ > x 3.V.-X1XzX>X0. .4 & g V.1XV.x & 2 :.=X>XxXcXcXcXdXeXyXkXkXiXuX0X@X+XXXOX].W.].v.R q ! A.O.",
"Z . , @.U J &.[.].|.XXv.p L N.'.,XoX4X.XqXuX2XiXkXB.h =XlXxXzX-X4 4 x x 4 4 5 z z h 4 r z 9.xXxXV.r $ ) V.1XmXxXzXvXvXcXsXeXsXfXeXkXrX0X@X+X+XOX[.XXOXL.W t _ S.q.",
"C X 2 %.U J @.).].XXW.x.y R `.oXoX0X).,.L.qXuXiX4X .l :XeXcXpX5.; x V.=XV.5.>.>.b 9.$X$X1XMX1X3.2 r :.>XxXzXxXxXvXdXgXgXgXkXgXkX5X5X5X.X).W.W.R.D.P.P.u.! = _ S.w.",
"C X 2 } U u { N.).|.W.6.p ! `.[.[.0X8.l $.4XiX2X8.3 c 2XsXcX>Xh % 3.xXmXmXbXpXzXzXzXMXmXMX1X) % i 5.MXmXzXMXxXzXvXzXcXcXgXfXfX;XU.5.,.X.| ~ ~ ! R ~ ~ | a * _ `.w.",
"C : $ 1.U = ! D.].^.].y.J ! '.[._.9XP.a 6.:X_.$.k 1 7.jXvXcX9.4 2 =XmXMXbXpXnXnXbXbXMXMX>X:.% - 1.nXnXMXnXMXMXmXjXxXxXaX-XC.1.( 9 9 w w q u f J u R L K = - T '.#.",
"C 2 > =.! J Y D.W.^.^.n.K Q D.[.).2X_.W c W W w 3 ,.U.xXcX-X) , :.pXzXbXMXmXMXMXnXMXpXV.6 % g 9.1XnXnXnXMXMXmXzXxXxX<X9.) 1 & 9 k ' o.@.@.$.1.4.&.+.[ Y * - _ ,X#.",
"M ; < 6.] J ! M.`.^.XXR.! K l.[.,XoXwXb.6.| | ..6._.6XgXeX2.3 l Y.nXbXMXmXbXbXmXMXnX5.4 % z V.zXMXnXMXnXnXzXmXxXaX9.c $ & r ) 7.=X:X2X,X6X,X,X[./.R.N.&.- * ' 6X*.",
"V ; 9 6.O.J U n.!.W.XX[.y.U ~ N.qXoXuXoXqX_.)._.iXiXiX7X8.3 h 7.xXpXnXMXnXzXMXMXaX<.2 % >.1XbXmXzXnXMXbXbXMXbX>X3.4 $ ; ) V.3XjXcXkXkXkXiXtX9X6X[.@X@Xc.u 8 1.7X*.",
"V % 1 ;.[ J U x.`.W.E.`.!.%.K +.b._.7X9XlXkXiXyXhX2XY.,.1 ; ,.8XcXnXpXbXMXMXMX=X3.- % :.1XMXbXzXbXmXbXMXmXzX=X) $ ; x 7.:XgXlXjXjXfXiXrXuXqX6XoX[.OXoXx.q q z.6X#.",
"C $ < =.%.J U %.v.W.!.^.'.p.U d L ..6.Z.Y.Y.Y.B.2.) h $ ,  .-XmXaXmXnXbXMX1X9.x % g 9.1XMXzXbXbXbXmXMXMXpX5.2 $ 4 ) 0.sXcXlXlXcXgXkXiXrXuXuXqX4XOX.X].6.e d Z..X| ",
"V & 9 =.e.J J ! [ M.W.`.[.`.y.{ L 1 q k E E c f 9 < r g 3.>XxXmXdXmXzXpX=X>.g 4 / V.xXMXmXzXMXbXpXmXxX>X>.2 O c 0.;XsXcXcXgXcXcXgXkXfXuXwX0X@X.X.XXX).#.a W (.).W ",
"M % 9 l.p.U J u L ~ R.`.`.`.[.F.l.@.f a w w 9 a k o.9.Y.aXcXaXcXxXjX>X9.x & 4 5.1XMXbXgXzXMXvXpXbXvX=X' ; , :.=X3XhXhXgXgXgXlXcXgXkXkXiXuXwX@X.X)..Xv.~ y { [./.j ",
"M $ 9 y.p.U J J * L ~ l.S.`.`.,X,X_.I.b.c.v.b.B.Y._.qXyXyXiXlXhX:X9.) < , z 0.pXmXmXzXzXvXzXmXmX1X-X) 2 r ,.2XlXfXlXeXsXkXsXsXgXdXhX9X9XqXOX).P.v.R.x.Q p =.[.m.R ",
"m % 0 y.f.] J = u y s ! %.e.S.F.'.6XoXoX6X6X6X7XtXiXiXiXtX6XY.;.k 8 * e :.=XdXcXzXgXbXzXdXxXvX1X9.^ & < 2.<XlXlXkXsX5XfXlXgXgXgXsX6XI.c.;.#.| ~ W [ ! a L y.`.z.L ",
"m % i y.S.%.J = J E s J U ] ] } z.x.m.P._.oX[.oX_._.(.B.6.o.k 3 1 E o.C.<XlXcXgXpXpXgXpXxXcX8X1.f < r @.:XlXkXeXkX8X3XiXlXlXeXY.7.@.W d j e p a P u 0 y ! S.`.r.K ",
"m % u w.A.p.Y = J 1.{ Q U U J J K L E ! +.@.@.....` E a 9 < 9 W 2.F.,XhXlXfXeXgXgXgXgXgXxX8X1.y * f 4.:X9XhXyXyXlXeXeXiX8XU.3.c 3 q p j ~ ~ O.+.&.Y t u +.D.!.r.T ",
"m & u *.k.n.U = J &.l.r.O.] U K u y q q q q q 9 q p 9 w ^ @.7.Y.<XyXhXyXyXyXgXkXfXgXlX8XC.o.9 0 ' B.<X9X9XiXkXiXiXtX5X_.8.l 1 1 w [ &.n.M.T.`./.z._ u P r.E.^.r.I ",
"m & p O.s.f.] = - { m.D.S.i.i.%.] ` ` ! E E ^ _ ` @.$.c.I.(.,X9XyXyXiXiXyXkXlXkXgXyX:X3.f < i 1.(.9XyXtXyXyXtXyXkX2Xb.( w < a o.c.D.`.[.].].OX].z.I = ! y.^.^.y.K ",
"M & p O.d.f.e.Y = E =.!.!.Q.S.n.z.v.m.M.M.N.R./.F./._.,X7X,X_.,XqX2XrXiXtXtXyXtX9XZ.@.p 9 j 4.(.<X_.,X7X7X2X9XtX9X8.l 3 j o.B.(.6X].].].R.!.].D.} = - +.M.E.~.y.I ",
"M 0 p O.g.A.n._ = = ] f.Q.k.A.D.D.R./.`.].].oX].).[.oXoX[.6X6X6X6X5X5X2X2X2X_.c.@.` q q { c.(.,X:X'.,X6X:XoX9XU.X.a 1 k 8._.,X,X9XXX`.T.R.^.`.r.K * T l.T.T.T.y.L ",
"V ; 1 %.d.K.k.p.] J Y } n.S.H.T.G.E.E.}. X+XOXXXXX).oX6X7X,X,X,X,X@X@X6X_.v.W w 8 8 E 2.Z._.:X:X,XoX.X)._._.c.( 9 & ' Z.,X7XoXOX@X+X^.^.^.P.r.[ u u %.A.E.T.T.*.P ",
"C ; > *.d.k.k.f.} U J J ] *.v.H.H.T.T.^.OXOXOX).).).).[.[.6X7X9X,X_.I.x...E q q d @.B.,X6X_.oXoX[..XXX_.I.6.^ q 8 ' c.,XqX7X.X.XOX@X|.W.W.r.~ P J ] n.Q.!.E.A.&.s ",
"D : > O.d.j.j.h.d.] U J u R [ *.y.=.y.N.].[.[./.N.N.N.P./.)./.L.v.@.E q 8 8 d ' c._.6X7X7XoXoX.X).oX_.P.=.k 8 q ^ Z.,X9XqX@X.XXXOXOXoXW.M.+.s t P z.!.].^.!.A.%.s ",
"D 4 & O.g.j.g.J.k.e.] U J J J J P I ! ` &.l.l.l.=.@.%.#.#.#.| W j 8 * 8 f ' l.F.6X6X[.oXOX].|.XX+X,XP.@.j 8 p ..N._.6X6X@XOXXX].XXoXoXR.*.! s J } D.].].^.^.A.} J ",
"F 5 & } d.j.j.g.f.f.e.U J J u = = * 0 0 0 u I f L I d p y y y p p I ^ } c.Z.(.,XoX[.XXoXOX|.W.W.XXZ.@.s q j +.N.].[.OXOXoXOXXX).].,X[.x.R d U _ &.D.!.|.^.!.A.} u ",
"D 6 & +.d.j.J.J.g.h.p.%.U u = = - T f f y 9 0 0 q y y u s I ! { &.z.c.Z.'.[.[.[.].].OXOXXXOXOX).s._ p 8 L =.N.).).].XXXXOXOXXX).).'.N.{ p s [ r.n.n.S.Q.^.!.n.[ u ",
"D 5 > %.j.j.g.J.a.f.f.p.[ J = = J E _ } } { { { ` ` ` } l.c.z.m.m.N./.).'.].XXXXXXXX[.].].[.'.r.E 9 q L &.N.`.W.E.W.^.].].OX]./.R.m...R R ~ r.N.S.p.A.Q.Q.Q.p.] J ",
"D 5 < &.f.j.g.g.a.i.d.e.w.~ P u = y ! &.l.m.m.m.x.N.n.n.D.R.R.M.M.R.W.W.^.^.XXXXOX[.XX[.'.m.{ s 0 p R &.N.R.W.E.T.E.^.^.^.].`.N.n.{ y s ~ *.n.D.D.A.h.T.J.H.r.] J ",
"D : > { f.d.j.j.g.h.f.f.d.w.*.! K p p P +.l.M.N.D.R.T.T.T.T.E.E.E.!.W.].XX].].XXXX].!.N.=.` y = u { l.D.!.R.!.W.^.^.E.^.!.!.S.} P y d [ y.p.O.*.f.S.s.H.a.a.*.! J ",
"D @ ; ~ d.j.K.K.g.k.k.k.h.s.s.t.O.! L s R ~ #.r.s.A.T.R.^.~.~.~.~.W.].^.XX].^.R.R.v.=.[ L y * u T m./.].`.W.^.^.^.E.Q.R.n.r.{ U K R +.y.h.s.t.w.q.a.a.a.t.q.O.Q u ",
"D 5 ; ! p.h.K.k.h.f.k.K.g.H.H.H.s.&.{ P K K R Q +.+.w.v.A.R.R.R.R.N.N.N.M.M.x.=.+.~ R p 0 y K { 4.R./.!.`.W.^.!.T.A.s.*.[ P K P ] *.p.A.T.h.T.h.s.g.a.t.i.t.O.! J ",
"D 7 O Q p.k.k.h.d.j.j.j.j.g.J.H.H.M.y.%.~ U K K K P U ! [ ] { _ ~ _ ! ! ` E L p y u y s I { &.x.Z.M.N.R.D.R.A.y.*.O.] P P U ! %.l.k.h.T.H.T.H.Q.Q.h.a.t.t.t.*.~ s ",
"D 7 . j y.h.k.h.d.j.k.j.j.J.h.H.H.M.A.n.r.#.~ P J t = = = = = - = t t t t 0 = t u f E { 4.m.N.m.m.n.n.x.r.#.+.! R P L R O.w.y.S.D.k.h.h.h.K.h.h.h.a.u.t.t.t.*.Q t ",
"D v . w r.h.k.h.g.j.j.j.j.a.g.h.h.s.s.s.s.p.w.&.%.Q P u = = = - - * 0 = = * t K T I _ { &.&.&.[ ! ~ ~ Q L s s K P ! { w.p.A.A.T.!.k.Q.H.a.d.K.A.s.s.a.t.a.t.-.! u ",
"D v . ; %.f.H.g.j.d.j.j.g.g.a.f.S.a.a.g.s.h.h.s.p.y.w.{ ! P K u t t t 0 * * = 0 u - i i s y y y 0 q y s L P ! } &.m.S.D.A.M.h.T.T.K.K.J.i.a.k.A.f.s.i.u.u.t.#.! u ",
"D B . $ [ i.h.g.g.j.j.j.j.k.h.S.S.H.H.g.a.H.H.h.A.A.A.n.n.=.*.&.&._ _ T f T u i = i i i t y s I I L ! { &.z.m.F.F.'.`.!.A.T.h.s.t.K.d.g.j.h.i.i.i.w.q.t.q.*.` T 0 ",
"D A @   : :.@.{ } w.O.%.e.e.p.p.p.A.s.s.p.p.p.p.y.p.p.p.p.e.y.e.e.%.=.%.} [ ] ! ! P U ! Y P I _ ` %.=.y.y.x.y.l.x.n.n.l.=.=.+.[ [ { { ` ~ { _ Q _ _ _ E ^ Y i - * ",
"D S N   + 4 1 q s K K P Q ! Q W ! Q Q E Q Q ~ Q Q R P Q R Q Q U Q ! Y Q U E P d s y u y p q q p s d d L L L K L d d E L d j p e p p t y 9 i q 8 0 0 * - 0 8 % - p ",
"D G A # o + O ; 3 g r 4 4 4 3 ; ; 3 w 9 3 9 1 1 9 q 9 9 9 8 8 9 8 9 < & 9 9 8 8 8 & , % & & % & & > < , > & > & > > 1 2 9 2 , , 2 , 2 2 2 i 2 2 5 2 % % 5 2 - T >.",
"D G G A B B B B <.#X5.<.<.B B B B b b b b b z z 6 6 6 6 6 6 6 5 5 6 6 6 6 6 6 6 6 6 6 6 6 6 6 7 6 b 6 b b 6 b b b b B b b b b z b b b n b b n b <.B n <.<.<.B <.$X"
};
